<svg width="56" height="58" fill="none" xmlns="http://www.w3.org/2000/svg"><g clip-path="url(#a)"><path d="M55.157 36.12v-.037c.028-.137.01-.33.028-.476 0 0 .027-.018.027-.028.019-.11 0-.21-.092-.283.092-.101.055-.156.028-.257-.01-.046.027-.046.027-.064.028-.091-.12-.174-.092-.256.01-.028.065-.138.065-.156v-.174c-.139.018-.01-.11-.028-.174-.037-.1-.018-.265 0-.375.028-.156-.083-.44-.065-.531.019-.064.019-.32 0-.412 0-.055-.046-.037-.027-.128.018-.1-.028-.128-.093-.192.037-.037.074-.11.065-.156 0-.046-.166-.183-.065-.257l-.092-.128s.092-.137.065-.256c0-.037-.13-.082-.028-.156v-.027l-.157-.156c.11-.119.056-.229-.028-.348-.018-.045.056-.073.065-.091.019-.064-.018-.202-.083-.238h-.046v-.266c0-.009.027-.018.027-.027.019-.092-.064-.174-.064-.192 0-.01.055-.037 0-.129-.019-.027-.092-.073-.092-.091-.01-.046.027-.055.027-.064.019-.083 0-.284-.083-.33H54.4s.028-.146.065-.174c-.01-.027-.028-.11-.028-.11s-.092.019-.064-.045c0-.01.027-.019.027-.028.019-.082-.027-.128-.064-.192-.01-.028-.019-.073-.065-.092.092-.073-.046-.183-.065-.256-.018-.1.056-.183.028-.256 0-.028-.12-.101-.13-.129-.008-.045.029-.055.029-.064.027-.119-.037-.22-.157-.201 0-.082.046-.165.092-.238-.01-.037-.092-.12-.092-.128-.028-.092-.037-.266-.065-.376l-.028-.155c-.027-.11-.157-.083-.129-.192 0-.01.028-.019.028-.028 0-.037-.046-.091-.065-.128v-.064s-.157-.138-.157-.156c.046-.055.083-.119.065-.192 0-.018-.055-.046-.065-.064-.018-.055 0-.1-.083-.137h-.046s0-.376-.157-.422c.056-.046.047-.165-.018-.201h-.046v-.174c0-.018-.093-.073-.093-.092-.009-.045.01-.119 0-.155 0-.018-.184-.266-.193-.284-.056-.21-.093-.357-.222-.568-.018-.036-.092-.119-.092-.128-.01-.046.01-.119 0-.155 0-.019-.092-.074-.092-.092v-.064s-.12-.1-.139-.11h-.046c-.018-.055.028-.064.028-.082.009-.028-.019-.074.027-.092-.036-.036-.027-.082-.083-.11 0 0-.064 0-.083-.046v-.192a.526.526 0 0 1-.221-.284c-.028-.064-.046-.055-.093-.155-.083-.174-.184-.183-.156-.412 0-.01.027-.019.027-.028.01-.128.019-.293-.129-.302-.018-.055.028-.064.028-.082.028-.11-.055-.128-.065-.156-.027-.11-.11-.174-.129-.256-.01-.055.01-.137 0-.192 0-.019-.212-.22-.221-.257-.019-.073.027-.11.027-.128.019-.082-.129-.348-.157-.44v-.063c-.064-.175-.221-.284-.193-.477.027-.164 0-.348.027-.503 0-.046.028-.1-.027-.156.083-.119.055-.1.027-.22-.027-.11.093-.173.065-.283-.028-.101-.019-.312 0-.44.01-.073.065-.128-.028-.22-.018-.045.056-.073.065-.091.027-.1 0-.247-.065-.33.13.01.157-.238.13-.33 0-.017-.075-.063-.093-.09.046-.12.12-.22 0-.312v-.027s.185-.156.194-.193c.01-.036 0-.091 0-.128 0-.037.083-.128 0-.192l.157-.22-.065-.128c.13-.073.074-.165.092-.256 0-.019.056-.046.065-.065.018-.073 0-.21-.065-.256v-.027c.047-.064.093-.138.093-.202.101.01.074-.055.092-.11.01-.027.046-.045.028-.128a.55.55 0 0 0-.065-.128l.157-.192c-.092-.174.046-.192.065-.256.009-.046.018-.101.027-.156.037-.128.037-.257.065-.376.01-.054.083-.183.092-.22.01-.045-.01-.118 0-.155 0-.018.056-.046.065-.064.027-.091.037-.348.064-.476.019-.1.083-.156.028-.302.092.009.046-.019.065-.046 0-.01.027-.018.027-.027.019-.055-.027-.092-.064-.129V12.6s.092-.073.092-.092c.028-.1-.055-.173-.028-.265.111.027.083-.128.093-.202 0-.009.027-.018.027-.027.028-.128-.083-.146-.092-.192-.028-.1.028-.064.046-.083.092-.055.11-.146.019-.201v-.027c.064-.055.12-.092.092-.193 0-.009-.028-.018-.028-.027v-.064s-.046-.074-.064-.092c-.019-.037-.074-.073-.093-.128-.046-.192.166-.229.194-.311.019-.074-.028-.11-.028-.128-.009-.083-.009-.11-.027-.193-.01-.046.055-.073.064-.091.037-.12-.046-.174-.129-.257.102-.082.11-.192.092-.31 0-.01-.027-.02-.027-.028v-.156c-.028-.156-.13-.092-.065-.311.019-.074-.083-.165-.092-.22-.019-.055-.046-.238-.028-.284 0-.018.055-.046.065-.064.018-.073-.065-.091-.028-.192.028-.083-.083-.22-.092-.257-.019-.045.009-.137 0-.192 0 0-.102-.11-.111-.11h-.083v-.045s-.028-.019-.028-.028c-.018-.119.037-.201-.092-.284.046-.036.11-.128.092-.192 0-.018-.055-.046-.064-.064-.056-.183-.157-.21-.222-.375-.037-.083-.055-.028-.092-.092-.055-.082-.019-.119-.11-.174-.102-.055-.02-.137-.02-.137 0-.01-.027-.019-.027-.028V6.44h-.046s-.055-.019-.092-.028c-.019 0-.056-.064-.083-.082.092-.055-.047-.284-.111-.302h-.083v-.083s-.13-.119-.157-.192c-.028-.064-.157-.156-.24-.202-.055-.036-.046-.091-.046-.091-.028-.028-.175 0-.222-.082-.064-.101-.046-.101-.175-.138-.018 0-.046-.055-.065-.064-.046-.009-.101-.018-.156-.027-.047-.01-.111-.019-.157-.028-.083-.027-.065-.128-.083-.174 0-.018-.056-.046-.065-.064v-.046h-.046c-.056-.036-.102-.119-.194-.027l-.221-.192-.13.091s-.073-.027-.083-.027v-.11s-.147-.128-.175-.137h-.065s-.073-.147-.129-.156h-.129s-.018.027-.028.027c-.092.01-.203 0-.304 0 .018-.055-.028-.064-.028-.082 0-.037.01-.092 0-.128 0-.018-.101-.073-.11-.083-.093-.018-.268 0-.351-.027-.046 0-.065-.128-.194-.092-.01 0-.037.055-.092.028-.01 0-.019-.028-.028-.028-.065-.018-.13.064-.194.092-.064.018-.074-.018-.092-.028h-.046v-.045c-.028-.055-.102-.064-.111-.083-.13-.11-.166-.22-.314-.027h-.027c-.074-.092-.166-.137-.259-.192l-.064.027c-.046-.082-.111.082-.157.092-.065.018-.13-.064-.194-.092-.13 0-.212 0-.314-.027-.055-.01-.092.009-.157 0a.291.291 0 0 0-.194.064h-.064l-.157-.092c-.074.11-.194 0-.314.028-.092.027-.009.091-.221.027-.037 0-.148.1-.222.064l-.092.128c-.065.019-.083-.027-.092-.027-.083-.018-.12.027-.13.027 0 0-.036-.055-.092-.027-.009 0-.018.027-.027.027h-.046v.046l-.084.082h-.258c-.102-.027-.11 0-.221.028-.056.018-.213.082-.259.092-.046.009-.12-.01-.157 0-.027 0-.129.119-.11.155-.084 0-.148-.091-.24-.064-.028 0-.148.156-.194.192h-.028s-.046.055-.065.064c-.046.01-.055-.027-.064-.027-.157-.037-.175.046-.286.091-.019 0-.092 0-.13.028-.073.046-.092.174-.082.256h-.111s-.019-.027-.028-.027c-.064-.018-.074.027-.092.027h-.046s-.028.138-.139.128c-.129.092-.12.275-.304.284v-.137c0-.018-.093-.073-.093-.092-.027-.091.01-.201-.11-.265-.093-.055-.019-.046-.046-.137 0-.019-.093-.074-.093-.092v-.092c-.009-.045-.258-.274-.304-.302h-.046s.037-.22-.083-.256h-.065s-.102-.21-.138-.265c-.083-.11-.13-.037-.194-.156-.055-.1-.11-.083-.157-.156-.01-.027-.019-.064-.028-.091-.074-.11-.12-.064-.203-.083-.009 0-.018-.027-.027-.027-.028 0-.093 0-.111-.046-.01-.037.018-.073-.046-.11-.139-.082-.148-.11-.314-.155-.019 0-.065-.074-.092-.092a.247.247 0 0 0-.111-.027V2.52c-.028-.082-.314-.183-.397-.201-.018 0-.074-.092-.092-.092h-.065s-.018-.027-.027-.027c-.037-.01-.047.027-.065.027h-.046s-.056-.119-.083-.128c-.065-.018-.139.073-.203.064 0-.091-.083-.11-.139-.156l-.092.065s-.074-.092-.083-.11v-.046h-.046s-.019-.028-.028-.028c-.046-.009-.046.028-.065.028-.092.027-.212-.11-.258-.128-.065-.019-.083.027-.092.027-.056.01-.12-.027-.157.028-.065-.028-.12-.064-.194-.092-.11-.046-.304-.137-.415-.064l-.13-.064h-.064l-.194.091c-.027-.054-.129-.018-.138-.027 0 0-.019-.11-.083-.128h-.065s-.018-.028-.027-.028h-.13s-.046.083-.129.064c-.018 0-.046-.054-.064-.064-.037-.009-.093 0-.13 0l-.193.156-.093-.027c-.018 0-.101-.11-.157-.129l-.092.028c-.074-.1-.148.11-.221.091-.028-.064-.093.028-.13.028-.101.018-.138-.055-.193-.064-.056 0-.148 0-.176.046-.027.036 0 .1-.11.018-.157.128-.268.055-.443.091-.047.01-.111.055-.194.028l-.092.128c-.056.018-.111-.055-.194-.027-.056 0-.268.128-.286.128 0 0-.028-.046-.065-.028-.037.01-.083.138-.194.092l-.092.128c-.13-.073-.12 0-.194.027-.018.01-.083.019-.092.028-.018.01-.028.037-.046.046.018.055-.028.082-.028.091v.083h-.083s-.037.055-.092.027c-.019 0-.037-.046-.093-.027l-.193.091s-.203.275-.222.284c-.027 0-.064-.018-.092.027-.046-.091-.258.055-.268.11-.018.055 0 .156-.027.22 0 .018-.047.028-.028.082h-.138s-.019-.027-.028-.027c-.11-.037-.185.183-.268.238.019.073-.092.064-.138.082-.074.019-.092.147-.083.22-.046-.055-.148 0-.157.046v.064c-.018.064-.194.027-.222.128v.064s-.147.074-.156.128c-.01.046 0 .065-.028.129v.045h-.083s-.175.129-.175.138c-.047.174-.13.11-.194.174v.045s-.056.046-.065.065c-.01.036.01.091 0 .128-.018.055-.24.1-.258.155v.083s-.083-.028-.13.137c0 .037-.147.073-.156.128-.01.046 0 .138.027.156-.027.018-.064.073-.083.082h-.064c-.12.037-.185.357-.286.412h-.047v.046s-.027.018-.027.028c-.01.054 0 .32 0 .33-.056-.02-.065.027-.083.027-.083.018-.148-.028-.203.082v.027c-.037.083-.019.101-.028.156-.01.046-.175.156-.065.256-.101.083-.341.156-.221.312.01.045-.13.155-.092.238l-.13.027c-.009.147-.184.32-.156.485 0 .01.046.037.027.092-.037.037-.212.137-.221.192-.019.073-.019.165-.065.257-.046.091-.12.119-.092.256 0 0 .028.018.028.027.027.129-.157.284-.13.412 0 .01.028.019.028.028.01.036-.028.046-.028.064v.046h-.046s-.055.018-.092.027c-.055.018-.037.083-.046.11 0 .01-.028.018-.028.027-.018.083.056.156.028.257 0 .018-.056.046-.065.064a1.588 1.588 0 0 1-.157.412c-.083.137-.11.513-.156.696 0 .018-.065.082-.065.091-.028.11.055.128.065.156.018.064-.093.073-.13.128 0 0 0 .046-.027.064-.01.037.083.12.064.192 0 .019-.055.046-.064.064-.019.064.009.12.064.156 0 .018-.194.1-.157.22 0 .009.028.018.028.027.01.046-.055.074-.065.092-.018.055.047.146.065.192.01.028-.018.073.028.092v.027c-.102.092-.222.238-.194.376 0 .027.065.1.092.128-.064.045-.018.146-.027.22-.019.09-.185.182-.157.31.037.165-.056.22 0 .413.018.064-.12.164-.13.192-.027.082.019.256 0 .348 0 0-.027.018-.027.027 0 .019.055.21.064.257.028.091-.129.119-.092.256.046.21 0 .128-.028.22a.691.691 0 0 0 .028.31c-.092.12-.037.175-.065.285-.027.11.056.128.065.155.01.037-.055.064-.028.129.037.119-.018.1-.027.192 0 .046.009.229 0 .238l-.111.027s-.037-.027-.046-.046c0-.018-.028-.082-.028-.091a1.089 1.089 0 0 0-.203-.174c-.064-.037-.13-.156-.221-.128 0 0-.019.027-.028.027-.028 0-.102-.055-.11-.082v-.064l-.084-.082c-.074-.019-.11.027-.175.027.027-.055-.074-.174-.11-.192-.12-.037-.176-.12-.287-.156-.13-.046-.148.01-.24-.11a1.553 1.553 0 0 0-.175-.174c-.028-.009-.074.019-.093-.027h-.027c-.13.146-.259.119-.268-.083-.055-.045-.101-.137-.175-.11-.13.037-.065 0-.157-.064-.055-.036-.157-.045-.222-.064-.009 0-.092-.091-.129-.091h-.129c-.074-.018-.065-.046-.157-.028-.11.019-.212-.027-.203-.137l-.24-.137c-.147.11-.129-.019-.194-.064-.046-.028-.12-.019-.156-.064l-.065.027c-.083-.055-.092 0-.13 0-.202.046-.184-.165-.285-.192h-.093c-.073-.019-.147-.12-.258-.092-.037 0-.083.128-.157.028l-.157-.028c-.074-.064-.101-.165-.194-.192-.046-.01-.046.027-.064.027-.074.019-.092-.064-.194-.027-.064.018-.12-.064-.221-.028-.093.028-.148-.11-.194-.128-.12-.036-.296-.018-.415-.064-.037-.018-.13-.091-.157-.091-.046-.01-.111.009-.157 0-.046-.01-.13-.184-.259-.064-.064-.065-.092-.11-.193-.092-.083.018-.047 0-.13-.028-.027 0-.073.019-.092-.027l-.13.092c-.064.018-.073-.019-.091-.028h-.028c-.065-.037-.102-.155-.194-.128-.009 0-.018.027-.027.027-.047 0-.093-.018-.13.028-.064-.018-.092-.064-.157-.092-.018 0-.018-.027-.027-.027-.102-.018-.212.082-.314.064-.01 0-.018-.027-.028-.027 0 0-.101.045-.129.064-.101-.129-.221-.129-.35-.092-.037.01-.065-.064-.194-.027-.065.018-.083-.019-.157 0-.056.018-.111-.055-.194-.028-.046.01-.065.128-.194.092a.558.558 0 0 1-.129-.065c-.101.074-.13-.018-.194-.027-.064-.018-.138.018-.175.082v.046s-.102 0-.11-.027l-.093.064h-.065l-.092-.128c-.13.018-.323-.046-.397.082-.01.018.019.073-.083.046-.092-.028-.148-.018-.221-.028-.01 0-.083-.064-.093-.064-.11-.027-.184 0-.258.092l-.13-.064c-.073.1-.091.046-.156.027-.037-.009-.046.028-.065.028h-.046v.045s-.064.11-.083.11c-.018-.009-.046-.055-.065-.064h-.286c-.055 0-.11.12-.193.092-.213-.064-.406.064-.637 0-.028 0-.157.055-.194.064-.037 0-.092-.01-.13 0-.036.01-.24.183-.313.155-.01 0-.018-.027-.028-.027-.046-.01-.055.046-.092.027-.046.037-.12.211-.157.22-.046.01-.074-.091-.194-.064-.036 0-.12.092-.129.092h-.092s-.166.146-.221.155c-.083.019-.268-.036-.305.083 0 .027 0 .091-.046.11-.056.018-.102-.046-.157-.028-.028 0-.074.092-.092.092-.166.046-.102.091-.139.128h-.11c-.047.009-.157.192-.176.238v.046h-.046s-.083.064-.092.064c-.093.018-.194-.028-.286.027-.074.046-.074.12-.083.128-.01.01-.231.083-.268.092-.018 0-.194.21-.203.238v.046s-.194-.028-.221.082v.092c-.019.073-.167.027-.194.091a.575.575 0 0 1-.203.266c-.056.027-.037.027-.093.064-.064.037-.064.119-.083.174 0 .009-.027.018-.027.027-.01.037.018.128-.046.138H7.17s-.258.238-.267.265c-.028.11-.13.247-.194.348-.028.037-.157.174-.157.192 0 .046.01.12 0 .156-.028.11-.25.22-.314.311a3.996 3.996 0 0 0-.194.412s.047.018.028.064c0 .019-.101.1-.13.156-.045.119-.027.265-.091.412-.037.082-.083.165-.093.256-.009.064.028.147-.027.192v.065l.092.155v.064c-.074.073-.055.183-.092.257-.01.018-.056.045-.065.064-.018.055.028.119-.028.155.047.074 0 .074 0 .092-.018.091.019.183.065.256v.028l-.092.091.064.128c-.083.147-.046.293 0 .44.019.046-.092.302 0 .375-.074.1.019.128.028.192.01.046-.01.12 0 .156.01.037.12.082.157.082-.019.019-.028.074-.028.083-.027.037-.074.082-.092.128-.01.028.018.073-.028.092.019.036.019.091.028.128 0 .018.055.046.065.064.009.037.027.155.027.192v.156l.13.091c-.047.055-.084.12-.065.193 0 0 .083.091.092.128.028.064.019.155.028.22 0 .009.046.027.027.082-.12-.028-.184.064-.267.128h-.028c-.092.064-.074.21-.083.22H5.62s-.046.055-.065.064a.314.314 0 0 0-.24.256c-.027.018-.156.028-.156.028v.046s-.148.128-.157.155c-.019.046-.01.12-.065.156l.028.11c-.065-.019-.074.036-.111.064-.055.036-.35.21-.37.265-.008.046.01.11 0 .156-.018.082-.128.165-.156.284-.018.064-.24.164-.258.22 0 .036.009.09 0 .128 0 .027-.24.265-.259.347-.009.055.019.138 0 .193 0 .027-.101.091-.129.128v.027c.046.046.018.12.092.156v.027l-.064.129c-.037.064-.25.265-.259.283-.009.046.01.11 0 .156-.027.12-.092.055-.027.256.027.092-.083.12-.093.156-.018.073-.009.256-.027.348 0 .018-.056.11-.065.128-.028.1.046.137.065.192.027.101-.028.064-.046.083-.084.046-.037.155-.047.238-.018.155-.073.302-.027.476 0 .027.064.174.064.192 0 .018-.027.018-.027.028v.128s-.065.082-.065.091a.244.244 0 0 0 .065.22.425.425 0 0 0 .027.504c.01.036-.083.119-.064.22 0 .008.027.018.027.027.01.082-.018.22 0 .284.019.073.102 0 .065.155-.01.046.018.284.028.348 0 .01.027.018.027.028v.045s.102-.018.13.046c-.047.037-.047.137-.028.192 0 .01.028.019.028.028 0 .027.027.137.027.137s.083 0 .093.046c.018.055-.047.11-.028.192 0 .037.092.12.092.128v.064s.102.074.065.174c-.01.01-.139 0-.176 0-.055.019-.304.33-.332.394v.046s-.166.009-.194.11c-.046.165-.157.229-.258.375-.065.092-.074.192-.092.284-.01.037-.194.165-.222.256v.092s-.138.119-.157.192c-.009.037.046.064.028.128-.01.037-.065.018-.092.092 0 .018-.065.082-.065.091a.244.244 0 0 0 .065.22c-.12.073-.065.046-.093.128-.018.055-.12.137-.129.156 0 .046.01.11 0 .155 0 .055-.12.211-.129.257-.028.119.046.247.028.311 0 .028-.093.046-.065.156 0 .009.028.018.028.027v.028s.074.064.092.091c.01.1-.092.165-.13.257v.064s-.091.073-.091.091v.376s.055.045.064.064c.046.146-.083.174-.092.22-.018.073.018.118 0 .192 0 .036.018.064-.028.091.065.073.074.21.194.202v.018c-.092.082-.184.183-.157.311.01.055.12.11.092.192-.055.193.01.12.028.193.019.073-.018.119 0 .22.019.063-.018.164 0 .22 0 .018.056.045.065.063.027.092-.046.092.046.138.065.036.055.247.083.33.01.036.083.09.065.137.055-.019.055.027.083.027.027.01.083 0 .11.046-.046.055-.083.146-.064.22.018.054.194.128.129.283.175.083.092.138.13.257 0 .009.082.11.091.155.01.074 0 .165 0 .238-.055.019-.064-.027-.083-.027-.037-.01-.092.046-.11.082-.028.037-.157.174-.157.192-.01.037 0 .092 0 .129 0 .027-.148.128-.157.155-.01.046.018.22 0 .238h-.083c-.083.028-.083.064-.11.11-.075.1-.24.156-.13.311 0 .019-.185.156-.194.193v.064c-.055.119-.11.155 0 .284-.074.055-.074.119-.092.192 0 .018-.092.073-.092.091v.092s-.093.046-.065.156c.046.21 0 .128-.028.256-.018.092 0 .265-.027.348 0 .018-.056.046-.065.064-.028.11.074.146.092.22v.091s.028.018.028.028c0 .045-.028.055-.028.064-.018.073.037.192-.046.238h-.046v.046s-.028.018-.028.027c-.018.092.065.183.065.284-.065.055-.055.302-.028.375 0 .018.056.046.065.064.027.092-.046.275.046.33h.046v.174s-.028.018-.028.027c0 .01.028.019.028.028.01.073-.018.192 0 .256 0 .028.148.128.157.156.028.091-.046.22.065.284l-.065.128v.064s.092.119.092.128c.01.037.028.082.028.091v.11l.13.028s-.084.119-.065.201c.009.046.129.083.156.128.019.064-.027.083-.027.092-.019.1.092.265.129.348.037.082.037.1.065.192.018.064.12.073.129.082v.11s.027.019.027.028v.082s.083-.027.13.046c.046.073.11.183.129.256.009.037.101.046.129.092.092.137.175.1.194.11v.082s.064.11.083.11h.083v.128c.055-.018.064.028.083.028.037 0 .092-.01.13 0 .008 0 .165.155.174.174.028.045.047.146.065.201.13.037.323.082.415.202.037.045.046.1.065.155 0 0 .101.11.11.11h.093c.065.018.046.119.046.128h.046s.019.028.028.028c.064.009.138 0 .203 0l.028.192c.055-.019.064.027.083.027h.083c.064.064-.046.046.138.092.056.018.046.091.046.091h.046s.019.028.028.028c.037.01.083-.055.139-.028 0 .037.046.147.083.156h.092s.046.055.064.064c.148.046.24.165.397.156v.064c.074.027.13-.018.176-.028.073-.018.129.147.193.193h.028s.019.027.028.027h.157s.018-.027.027-.027c.056-.019.111.11.111.155.055-.018.065.028.083.028.065.009.157-.01.222 0 .009 0 .083.055.092.064h.083v.046s.083.036.11.082c.056.018.148-.064.176-.027.018.018-.046.027.046.064.065.027.083.045.157.064.018 0 .138.119.194.128.046.01.24 0 .286 0 .01 0 .028-.046.083-.028-.019.174.101.11.203.129.01 0 .018.027.028.027.037.01.175-.046.221-.064.019 0 .037-.046.092-.027.074.018.028.174.093.192h.092s.083.055.092.064c.148.037.323 0 .443.091.166-.027.176.046.379 0 .129-.027.147.083.193.092.065.018.296 0 .351-.027.055-.019.092.082.13.091h.091s.019.028.028.028c.037.009.157-.037.194-.065.101.055.35.129.48.092.027 0 .055-.082.11-.064-.018.119.176.128.222.046.01-.019-.018-.074.083-.046.019 0 .046.055.065.064h.194s.073-.092.092-.092c.11-.027.258.028.35.092.093-.055.13-.01.222 0 .184-.174.434-.092.655-.156-.018-.137.12 0 .203-.027.019 0 .065-.073.092-.092.093.092.213-.018.286-.027.056-.01.139.009.194 0 .019 0 .046-.055.065-.064.064-.018.138.082.194 0l.083.046c-.12.155.074.164.129.256v.046h.083s.046.055.065.064c.055.018.286-.018.304 0 0 .091-.028.201.046.256h.028s.018.028.028.028c.046.009.073.018.129.027h.064c.074.018.028.174.093.192h.092c.11.028.212.055.314.092.009 0 .018.027.027.027h.084v.046c.027.055.101.21.129.256.027.046.055.037.083.046.018 0 .018.028.027.028h.194s.019-.028.028-.028c.101-.027.074.147.083.156h.083s.028.046.083.027c-.028.165.175.147.194.156v.046c.055.1.277.073.314.11.018.018-.037.018.046.064.018.009.046.055.064.064.083.027.157-.037.24-.028-.018.055.028.064.028.083v.082h.046s.12.092.13.092c.073.018.147-.028.202.082v.046h.176s.055-.083.11-.064c-.009.073.019.183.083.22h.028s.019.027.028.027c.064.027.157.018.221.027.046.01.157.202.259.193.074-.101.138.082.194.091l.092.028c.064 0 .249-.028.267.045v.092c.028.11.213.046.259.128.046.083 0 .019.11.046.056.018.037.1.157.064.047-.01.148.037.176.082v.028c.073.11.175 0 .24.018.055.019.046.092.046.092s.129.036.157.027v.064c.074 0 .166.01.24 0 .009 0 .027-.045.083-.027 0 .055.027.156.083.192.055.037.11.018.157.028.018 0 .073.091.092.091.11.028.267.037.378.064.019 0 .056.055.111.028-.01.119 0 .073.046.091.019 0 .019.028.028.028h.11c-.018.055.028.073.084.091.101.037.203.019.313.028.01 0 .019.027.028.027h.138s.047.147.084.156c.073 0 .156-.01.221 0 .046.009.148.082.194.091.138.055.323.046.443.129.064.036.101.155.194.128.009 0 .018-.028.027-.028.139-.036.203.11.259.128.037.01.092 0 .129 0 .064.01.166.074.258.092.01 0 .019.027.028.027.129.028.148-.045.221-.064h.083c-.018.046.037.147.083.156h.065s.019.027.028.027c.055.01.138-.009.194 0 .018 0 .046.055.064.064.12.037.332 0 .443.092.185-.046.277.1.48.064.185-.037.277.183.443.064.074.12.23.037.35.064.037 0 .12.092.13.092.064.018.138-.018.194-.064.11.046.221.091.35.128.01 0 .019.027.028.027h.157s.12-.091.138-.064c-.009.046.019.064.046.092h.176l.046-.092s.064.055.083.083v.045s.064-.009.083.028l.194-.064c.147.119.35.055.507.155l.093-.027c.092.092.221.046.313 0 .056-.018.093.082.13.092.055.018.101-.046.156-.028.01 0 .019.028.028.028.01 0 .138-.037.157-.065.092.165.184.046.258.065.203.064.351.018.536-.028.046-.009.073.055.092.064.221.055.194-.11.286-.155.074-.037.028.11.092.128.074.018.203-.037.259.027h.064l.13-.091c.11.055.276.036.415.064.203.036.443-.037.636 0 .139.027.379-.028.508-.064.01 0 .018-.028.028-.028.055.046.138.037.193.092l.13-.064c.323.045.636.027.95-.028.083-.018.148.028.203-.082v-.046h.175s.083.064.093.064c.101.018.313 0 .415-.027.028-.01.046-.092.157-.064.194.045.212-.019.378-.028.157-.018.36 0 .508-.027.009 0 .083-.064.092-.064.092-.019.277.045.332-.046v-.046h.139c.074-.01.184-.046.258-.064.028 0 .138.082.258.064.01 0 .019-.027.028-.027h.093c.073-.019 0-.101.156-.065.102.019.24-.082.351-.091.11-.018.157.027.258 0 .13-.046.277-.028.416-.064.009 0 .018-.028.027-.028h.093s.055-.119.092-.128c.074-.018.203.064.286-.027.055.055.23-.019.268-.083v-.045s.23-.019.304-.028c.148-.037.23-.046.379-.128.11-.055.129-.1.258-.064.055.018.083-.037.138-.028v-.064c.12.046.203-.055.24-.064.065-.018.12.019.176-.082v-.046h.046s.018-.027.027-.027c.065-.019.084.027.093.027.212.037.23-.073.314-.091.036-.01.092.009.129 0 .083-.019.073-.147.083-.156h.046s.055-.046.129-.028c.25.055.148-.036.258-.064.047-.009.111.01.157 0 .046-.009.111-.064.222-.091.101-.028.083-.037.11-.083.047-.082.12-.027.176-.045.018 0 .046-.055.064-.064h.093c.055-.019.092-.147.129-.156.037-.01.092 0 .13 0 .045-.01.248-.147.313-.156.037 0 .092.01.13 0 .027 0 .1-.119.128-.128.037-.01.093.01.13 0 .018 0 .073-.091.092-.091.037-.01.12.018.138-.046v-.064c.019-.074.148-.037.203-.046.01 0 .074-.055.093-.064.027-.01.092-.01.129-.028.083-.045.12-.21.157-.22h.064s.092-.091.13-.091c.046-.01.11.01.156 0 .01 0 .019-.028.028-.028h.028c.092-.054.064-.11.083-.173.009-.037.083-.092.064-.138.093 0 .166.046.268.028.01 0 .018-.028.027-.028h.047V53.9s.027-.018.027-.028v-.045h.083c.065-.019.111-.019.157-.028.065-.018.074-.119.083-.128 0 0 .102-.028.13-.028v-.128h.156c-.018-.064.037-.073.065-.11v-.027s.13-.137.138-.137c.065-.019.194.018.259 0 .028 0 .101-.12.129-.129.055-.018.083.028.11-.082v-.082h.047s.018-.028.028-.028h.092c.083-.027.074-.146.083-.155h.046s.046-.055.065-.065c.055-.018.286-.1.304-.137v-.064c.019-.046.35-.201.314-.33.046 0 .102.01.138 0 0 0 .111-.1.111-.11.019-.054-.028-.082.083-.11h.083l.028-.127h.13c-.02-.055.027-.064.027-.083v-.082h.11c.056-.018.037-.137.093-.156.175-.046.157-.137.286-.22.074-.045.037-.091.046-.137.019-.064.166-.018.221-.128a.63.63 0 0 1 .176-.174c.101-.082.083-.128.083-.256.092.018.138-.037.221-.028-.027-.055.028-.1.028-.11.01-.064-.028-.22.046-.238.046-.009.046.028.065.028.092.027.267-.156.332-.238a.962.962 0 0 0 .157-.266h.065c-.037-.128.12-.137.156-.201.083-.128.176-.256.259-.375.046-.065.157-.046.129-.193 0-.009-.028-.018-.028-.027v-.11c.056-.018.074.046.111.027 0 0 .019-.027.028-.027h.046v-.082s.249-.293.286-.348c.037-.055.12-.12.13-.156 0-.046-.01-.119 0-.156.017-.055.193-.146.22-.192.019-.037.019-.092.028-.128.01-.037.12-.055.13-.092.018-.073-.019-.174.082-.238.176-.11.12-.119.176-.302.11-.082.129-.11.194-.22.009-.018.055-.045.064-.064 0-.045-.009-.192 0-.201h.13s.027-.119.027-.128c.028-.028.046.046.092-.11 0-.018.093-.073.093-.092.037-.128.092-.192.129-.31 0-.02.12-.138.13-.157.008-.045.036-.21.027-.256 0-.009-.028-.018-.028-.027-.018-.074.092-.074.092-.083.028-.027.019-.164.028-.201 0-.018.185-.192.203-.201h.046v-.11s.065-.083.065-.092c0-.037-.01-.092 0-.128.009-.037.184-.156.194-.192.018-.046.009-.12.064-.156l-.064-.137c.055 0 .12-.037.157-.083l.092-.22-.065-.11s.148-.045.157-.082v-.091s.12-.074.092-.156c0-.01-.027-.018-.027-.027-.019-.074.092-.074.092-.083.018-.018.018-.137.028-.174 0-.018.055-.045.064-.064.01-.036 0-.091 0-.128.01-.037.093-.055.065-.192 0-.01-.028-.019-.028-.028-.018-.082.203-.091.157-.256 0-.027-.083-.055-.065-.11.074.01.102-.064.157-.11.01-.036-.092-.128-.064-.22.009-.036.184-.155.193-.192.019-.055-.018-.165 0-.22 0-.018.111-.137.13-.192-.083-.128.046-.137.064-.192v-.092s.065-.082.065-.091a.598.598 0 0 0 0-.257c-.037-.155.11-.137.129-.192v-.091c.028-.092.157-.257.065-.348.101-.147.175-.33.129-.504-.019-.055.12-.1.092-.192 0-.01-.028-.018-.028-.027-.009-.046.056-.074.065-.092.018-.082-.083-.128-.13-.192-.018-.046.056-.073.065-.092a.882.882 0 0 0 0-.348v-.128s.12-.055.13-.091c.018-.055-.01-.156 0-.22.009-.083.036-.037 0-.156-.01-.036.193-.311.064-.412v-.064l.065-.091c-.028-.065-.019-.165-.028-.22 0-.028-.138-.12-.13-.192.038-.019.029-.055.029-.064.018-.028.092-.074.092-.092.01-.037-.01-.092 0-.128 0-.01.083-.092.092-.128.028-.11.01-.238.028-.348 0-.01.028-.018.028-.028.018-.064-.019-.073-.028-.091v-.046s-.092-.018-.11-.027c-.038-.019-.056-.055-.047-.092h.13c-.02-.055.027-.064.027-.082Z" fill="#EC0909"/><path d="M15.264 46.282a.741.741 0 0 1 .258-.238v-.019l.101-.228.01-.074.064-.119c.01-.055.019-.128.065-.201a.366.366 0 0 1 .092-.11.382.382 0 0 1-.064-.119.71.71 0 0 1 0-.311v-.055l.064-.092v-.091c0-.074.01-.138.019-.202l-.185-.174.019-.082s-.028-.083-.028-.147l-.019-.045a.495.495 0 0 1 0-.202.438.438 0 0 1-.064-.183l-.074-.082v-.064l-.037-.064s-.018-.055-.018-.092a.427.427 0 0 1-.111-.183h-.01c-.073-.018-.212-.146-.285-.247h-.028a.355.355 0 0 1-.268-.302h-.018l-.11.055a4.036 4.036 0 0 1-.656.045.453.453 0 0 1-.443.01h-.01l-.036-.019a.361.361 0 0 1-.148.092l-.074.018-.073-.018-.111.165-.24-.193s-.092.046-.185.019l-.12-.064c-.055.045-.147.045-.147.045h-.148l-.028-.036a.87.87 0 0 1-.452.027c-.092 0-.175-.018-.24 0a.366.366 0 0 1-.258-.027l-.166.082-.139-.1a.513.513 0 0 1-.313.018.386.386 0 0 1-.12-.064c-.111.027-.259.018-.462-.028-.027-.01-.055-.01-.083-.01a6.005 6.005 0 0 1-.148-.026l-.083-.028-.055-.064h-.028a.711.711 0 0 1-.276-.01l-.12-.054a.481.481 0 0 1-.305-.083.383.383 0 0 1-.268.019c-.11-.028-.175-.11-.221-.183h-.028l-.147.055-.342-.138-.055-.073h-.222l-.064-.055s-.046-.018-.065-.018a.431.431 0 0 1-.184-.11c-.01-.01-.037-.046-.037-.046h-.12c-.093-.027-.148-.091-.222-.174h-.01l-.1.018-.111-.091c-.074.027-.176.073-.222.073h-.36a.305.305 0 0 1-.258.156.541.541 0 0 1-.194.146l-.092.083h-.074c-.046.027-.12.091-.175.137a.294.294 0 0 1-.074.12l-.102.09h-.092v.065a.774.774 0 0 1-.083.201c-.018.028-.046.064-.046.092l-.037.238H4.9a.931.931 0 0 1-.073.192c-.01.018-.019.027-.019.037.037.137-.01.265-.13.384 0 .046-.008.1 0 .137.01.037.029.156.029.193.037.073.073.146.092.22.028.146.064.265.028.384l.073.046.028.091.01.092.055.1v.083a.344.344 0 0 1 .083.137v.055l.009.046.055.092a.315.315 0 0 1-.027.256h.101l.037.046a.382.382 0 0 1 .203.155l.046.092v.055c.074.046.148.1.176.201v.018a.34.34 0 0 1 .24.22c.064.046.12.1.156.165a.35.35 0 0 1 .12.082.45.45 0 0 1 .194.275c.102.01.175.055.222.073h.073l.056.046c.083.046.157.11.212.192.028 0 .102.01.102.01l.12.054c.101 0 .203.055.267.128h.037c.065.01.203.019.314.138.092-.01.184 0 .258.055.056.027.092.073.13.11.027.009.064.018.092.036a.507.507 0 0 1 .387.064c.037.028.046.028.102.028l.11.018h.12a.34.34 0 0 1 .157.092c.074 0 .166 0 .259.036h.027c.102-.018.388.037.388.037l.065.018c.156 0 .323.037.461.073h.028s.12-.009.212-.009c.083 0 .221.028.221.028h.037s.019-.01.028-.01c.074-.018.295-.018.37.01h.045a.399.399 0 0 1 .323-.019c.037-.018.111-.018.166-.018h.074c.102-.036.213-.036.286-.036h.13c.064-.01.129 0 .166 0a.272.272 0 0 0 .073-.037l.111-.055c.12-.028.212-.046.314-.028a.312.312 0 0 1 .157-.1c.064-.01.12 0 .166 0 .018-.01.037-.028.064-.028h.074c.12-.091.176-.128.24-.146.046-.01.092-.01.13-.01a.408.408 0 0 1 .175-.063.367.367 0 0 1 .194-.147h.055l.046-.009.092-.046.102-.146.221-.046-.064-.064c.027-.064.092-.202.249-.247 0-.01.037-.037.055-.064.056-.055.13-.138.24-.184.046-.073.092-.146.139-.21v-.01ZM26.337 27.56l-.258-.074h.01l.23.138v-.028c0-.009.01-.027.018-.037ZM14.599 17.278l-.342.028h-.11a1.964 1.964 0 0 1-.462.064c-.083.009-.166.009-.221.027a.923.923 0 0 1-.25.074h-.073l-.019.027-.313-.027s-.056.064-.093.082l-.092.055h-.019s-.018.009-.027.009h-.046l-.019.01-.083.027c-.083.018-.157 0-.212 0h-.055c-.074.009-.12.027-.12.027h-.019c-.027.082-.092.137-.24.238-.12.082-.258.147-.397.201a.795.795 0 0 1-.387.275.359.359 0 0 1-.157.192l-.12.083a.255.255 0 0 1-.074.137l-.092.092h-.046a.307.307 0 0 1-.13.165v.018l-.055.11.12.265h-.268l-.027.128-.102-.055h-.055a.411.411 0 0 1-.102.12c0 .018-.009.073-.009.073l-.064.128c0 .064-.01.128-.037.192l-.074.1c.018.138-.046.248-.092.33l-.065.101c-.065.092-.065.12-.065.147.019.082.037.33 0 .448l-.018.073c.01.046.01.092 0 .138a1.158 1.158 0 0 0 0 .357l.018.119c.01.064.019.119.037.174a.342.342 0 0 1-.018.265v.037s.028.037.046.055a.58.58 0 0 1 .13.32c.018.046.036.092.064.128.064.11.092.156.11.22v.11s.019.027.028.027c.111.101.185.165.222.266v.037h.027c.139.036.24.146.268.283l.277.257a.34.34 0 0 1 .12.155h.009c.102.028.185.11.222.211.101.046.193.11.267.192.028.01.065.018.092.037.074.037.12.1.166.155.056.019.093.046.12.065.102.018.25.073.49.22.037.027.073.054.092.082h.046s.175.064.268.183c.129.018.295.018.387.165a.402.402 0 0 1 .36.11c.046 0 .092.018.138.045.148 0 .296.055.425.137a.265.265 0 0 0 .055.037h.019l.11.018c.093.01.157.065.213.11a.374.374 0 0 1 .212-.018l.11.037h.056l.157.128c.092-.046.166-.046.166-.046l.166.027h.065l.037-.045.295.146c.194-.036.37.01.498.046a1.41 1.41 0 0 1 .49.055h.018l.166-.1.323.09h.37l.036.046.102.028s.073-.01.11-.01c.065 0 .13.02.185.028.037.01.083.019.11.019a.343.343 0 0 1 .25-.046c.064-.018.148-.037.249-.018a.375.375 0 0 1 .221-.037l.084-.046a.255.255 0 0 1 .23 0c.028-.009.056-.027.093-.037.064-.009.12-.009.166-.009a.317.317 0 0 1 .221-.064h.028a.665.665 0 0 1 .434-.1.436.436 0 0 1 .166-.11l.138-.064s.074-.01.101-.01c.12-.1.185-.155.268-.174 0 0 .037 0 .055-.018a.218.218 0 0 1 .093-.046c.046-.018.083-.018.129-.018a.605.605 0 0 1 .222-.21.607.607 0 0 0 .212-.193.676.676 0 0 1 .286-.21c0-.046.018-.138.018-.138l.019-.064.083-.091s.046-.037.055-.055a.33.33 0 0 1 .065-.092c0-.018.009-.036.009-.064a.387.387 0 0 1 .148-.201c.009-.046.037-.083.055-.12 0-.11.046-.21.13-.292-.01-.046 0-.1.008-.147l.028-.1.055-.037v-.082l.102-.22a.971.971 0 0 0 .11-.183c-.008-.018-.036-.055-.036-.055l-.046-.073v-.174l.055-.101s.028-.082.037-.137a.967.967 0 0 1 .037-.174l-.037-.037v-.302l.064-.037.01-.018a.13.13 0 0 0 .018-.028l-.083-.146c-.018-.064-.018-.137-.018-.192 0-.055-.01-.083-.01-.11a.315.315 0 0 1 0-.229c-.027-.027-.055-.046-.073-.082l-.056-.092v-.037s-.027-.082-.027-.155l-.056-.055-.027-.11s-.111-.1-.102-.275c0-.009-.018-.027-.018-.027l-.084-.018-.156-.156v-.027s-.028-.037-.037-.055c-.065-.092-.065-.184-.065-.248-.018-.027-.037-.045-.055-.064-.046 0-.102-.009-.157-.018h-.055l-.12-.1-.019-.019-.23-.21a.434.434 0 0 1-.13-.156h-.018l-.13-.064c-.129-.037-.193-.147-.24-.21-.064-.01-.156-.02-.249-.074a1.204 1.204 0 0 1-.156-.12h-.342l.046-.2-.027-.019a.562.562 0 0 1-.277-.064 1.62 1.62 0 0 1-.139-.1c-.027-.028-.101-.074-.101-.074h-.074l-.148-.073c-.258-.037-.646-.22-.646-.22l-.027-.018h-.019l-.092.018-.166-.146h-.102l-.157-.037a.328.328 0 0 1-.184-.137h-.019c-.184.046-.295-.019-.36-.055-.073-.01-.156-.018-.23-.055a.42.42 0 0 1-.277-.092h-.148a.555.555 0 0 1-.203-.11c-.083.01-.184.028-.286 0l-.092-.027-.046-.055c-.065-.018-.139-.027-.213-.037a.881.881 0 0 1-.24-.036.645.645 0 0 1-.24-.046.524.524 0 0 1-.295.018l-.12-.045h-.332l-.055-.019Z" fill="#fff"/><path d="m33.092 52.8.305.083.12-.028.166.028c.083-.055.175-.083.323-.055a.417.417 0 0 1 .212 0l.083-.074.157-.027.212-.027h.092c.065-.01.185-.028.305.009l.12-.074h.212l.092.083.019-.01.203-.118s.175-.037.295-.037a.348.348 0 0 1 .176-.091c.046-.01.12-.01.12-.01l.083-.146.267.128c.148-.082.222-.091.37-.128l.055-.046.147-.082c.074-.019.148-.01.213-.01.027-.036.092-.082.092-.082l.212-.137.019-.1.193.063h.166s.093-.046.139-.064c.046-.018.13-.064.13-.064l.073-.064h.203s.092-.082.138-.12c.065-.036.148-.063.148-.063l.083-.147.194.101h.01l.11-.018.064-.046.102-.073s.083-.128.194-.156c.037-.018.101-.018.166-.018.046-.1.129-.183.314-.21a.325.325 0 0 1 .184-.129.696.696 0 0 0 .185-.11c.074-.055.147-.11.249-.155.018-.01.046-.028.064-.028l.176-.165h.074s.027-.027.046-.027c.064-.037.138-.083.24-.11.064-.137.24-.247.323-.293h.027c.139-.147.323-.256.462-.339l.12-.055h.037c.074-.11.258-.348.452-.393h.018c.056-.083.13-.147.203-.22.037-.037.083-.073.111-.11.11-.119.194-.174.305-.192a.46.46 0 0 1 .129-.137c.009-.019.018-.019.018-.019v-.027l.231-.202h.018s.065-.073.12-.11a.347.347 0 0 1 .222-.22h.018c.083-.128.166-.237.296-.274h.018l.037-.055.065-.073c.018-.055.073-.12.073-.12l.102-.1h.046v-.046a.558.558 0 0 1 .258-.265h.028l.037-.083a.733.733 0 0 1 .166-.21l.028-.083.138-.091s.046-.137.166-.192l.065-.046s.01-.046.01-.064c.018-.073.138-.21.24-.284v-.064c.018-.082.128-.192.211-.256v-.028l.019-.082.138-.183a.491.491 0 0 1 .231-.183c0-.037.028-.12.028-.12l.027-.054-.064-.257h.203s.055-.018.064-.1c.01-.083.083-.165.083-.165l.093-.101-.065-.183.212-.055s.01-.046.01-.064c.018-.083.092-.147.147-.192.019-.046.037-.083.056-.12 0-.036 0-.073.009-.118.027-.101.092-.156.166-.22a3.193 3.193 0 0 0 .157-.376l.037-.118c.027-.11.074-.23.138-.34l.028-.054v-.046l.046-.073-.055-.192.138-.037.092-.11.019-.1-.065-.193.175-.046a.384.384 0 0 1 .13-.247v-.027c.018-.074.037-.165.092-.275.065-.146.102-.275.138-.394.019-.064.037-.137.083-.21 0-.092.037-.192.139-.312.018-.018.018-.064.018-.091 0-.064 0-.128.019-.201l.046-.11.01-.11.054-.11s.01-.027.01-.046c.027-.091.092-.146.147-.201v-.192l.102-.147c0-.073.028-.146.065-.21a.392.392 0 0 1 .101-.11v-.34c.01-.109.028-.2.055-.274a.458.458 0 0 1 .102-.32.526.526 0 0 1 .01-.21.41.41 0 0 1 .11-.184l-.056-.091.037-.12V37.1c.01-.064.01-.128.028-.192l.055-.11c0-.046 0-.1.028-.156-.018-.082 0-.238 0-.238l.037-.128.028-.064-.12-.018a.376.376 0 0 1 .055-.33c-.018-.027-.01-.082 0-.128l.046-.1a.457.457 0 0 1-.018-.275l.055-.12a.372.372 0 0 1 0-.2 3.003 3.003 0 0 1 0-.578.305.305 0 0 1 .046-.11c-.018-.063-.037-.146-.018-.256a.736.736 0 0 0 0-.283.916.916 0 0 1 .046-.468.394.394 0 0 1-.046-.302l.018-.054c-.018-.065-.018-.12-.018-.165a.877.877 0 0 1 .028-.348c-.065-.1-.084-.22-.065-.33-.037-.091-.037-.174-.037-.229l-.028-.082a.504.504 0 0 1 .056-.32c-.019-.028-.037-.055-.046-.074l-.065-.082v-.284l-.074-.119.056-.137c-.065-.128-.084-.284-.065-.421a.38.38 0 0 1-.065-.348v-.028a.562.562 0 0 1-.166-.247v-.046l-.009-.046a.415.415 0 0 1-.065-.22.63.63 0 0 1-.064-.173h-.019l-.037-.137c-.018-.092 0-.165.01-.23a.99.99 0 0 1-.102-.118.44.44 0 0 1-.064-.238.269.269 0 0 1-.093-.147c-.009-.064-.027-.146-.027-.22 0-.045-.01-.1-.01-.119-.018 0-.083-.036-.11-.119l-.139-.073.102-.21a.324.324 0 0 1-.13-.174l-.064-.129-.01-.091-.045-.083s-.01-.091-.01-.128a.18.18 0 0 1-.083-.082l-.055-.092v-.018s-.01-.027-.01-.037c-.009-.027-.009-.045-.009-.073l-.101-.119v-.055s-.037-.064-.046-.1v-.037l-.074-.064c-.092-.092-.083-.21-.083-.266-.019-.036-.019-.082-.019-.128-.009-.018-.027-.037-.036-.055-.028-.046-.047-.082-.047-.119-.092-.064-.175-.128-.203-.238 0 0 .028-.018-.009-.055-.037-.036-.083-.073-.11-.119a.563.563 0 0 1-.093-.275c-.027-.027-.092-.1-.092-.1l-.25-.11.167-.192c-.203-.183-.212-.23-.23-.275-.01-.018-.01-.037-.01-.055a.321.321 0 0 1-.12-.174l-.019-.11-.11-.073v-.137a.748.748 0 0 1-.102-.156v-.082l-.037-.028-.11-.1.018-.101a1.23 1.23 0 0 0-.138-.238l-.093-.137.046-.101v-.019a3.194 3.194 0 0 1-.12-.128l-.027-.073a.274.274 0 0 1 0-.192c-.046-.055-.074-.1-.074-.128v-.055l-.01-.046a1.296 1.296 0 0 1-.055-.357c-.009-.064-.018-.12-.018-.165-.028-.037-.055-.073-.074-.128a.507.507 0 0 1 .037-.284c0-.018.028-.055.019-.055-.01 0-.028-.027-.028-.027l-.065-.12a.473.473 0 0 1 .028-.292c0-.055 0-.128.037-.21-.028-.092-.056-.211-.028-.303l.028-.1a.733.733 0 0 1 0-.285l.064-.119s-.055-.073-.064-.119a.435.435 0 0 1 .037-.338.453.453 0 0 1-.037-.348l.046-.1s-.01-.056-.01-.074a.503.503 0 0 1 .038-.311l-.019-.083s-.027-.201 0-.302l.056-.119s.018-.027.018-.037c.01-.018.065-.073.065-.073l-.019-.036V17.9s-.018-.037-.018-.064a.414.414 0 0 1 .083-.357v-.101c.009-.1.018-.21.046-.311.01-.019.018-.055.018-.055v-.257l.111-.11V16.5c.01-.064.019-.128.019-.183.009-.01.018-.064.018-.064l-.046-.046h-.037c-.055-.01-.102-.046-.166-.1l-.13-.083-.027-.073s-.037-.074-.037-.11h-.092l-.12-.028H45.9l-.277-.027.018-.146c-.147-.028-.203-.147-.23-.22a.272.272 0 0 1-.157-.174.265.265 0 0 1-.102-.1l-.055-.093V15c-.01-.028-.01-.055-.01-.083a.406.406 0 0 1-.175-.302l-.027-.082h-.046l-.074-.248-.028-.11-.212-.237.129-.12s-.037-.082-.037-.128c0-.045 0-.1.01-.146l-.065-.11c-.028-.073-.028-.476 0-.558l.027-.083a.735.735 0 0 1 0-.201l.028-.12.01-.063.045-.11s.047-.073.047-.1c-.01.017-.019-.037 0-.102.027-.119.12-.201.249-.247l-.083-.082.277-.43c.027-.101.11-.165.175-.211.018-.046.065-.11.166-.238.046-.064.13-.156.13-.156l.147-.174h.092a.39.39 0 0 1 .222-.183c.018-.009.027-.009.046-.009.101-.11.267-.21.406-.265a.459.459 0 0 1 .424-.147c.037-.018.083-.018.111-.018.018-.028.046-.046.074-.064a.441.441 0 0 1 .212-.064c.046-.01.425-.083.59-.037.028.01.047.027.065.027-.018-.064-.018-.137-.018-.2-.056-.147-.092-.212-.092-.294v-.073a.34.34 0 0 1-.139-.21l-.101-.147s-.01-.028-.01-.046c-.055-.037-.101-.11-.12-.21-.027-.028-.046-.055-.064-.074a.297.297 0 0 1-.12-.073l-.102-.11v-.036s-.018-.019-.018-.028c-.092.01-.221-.018-.35-.183a.476.476 0 0 1-.065-.1c-.102-.02-.24-.056-.323-.184-.046.018-.083 0-.12-.009a.488.488 0 0 1-.148-.082 3.502 3.502 0 0 0-.138-.092l-.148-.055h-.11l-.02.018-.165.019c-.074 0-.12-.019-.277-.101a.618.618 0 0 1-.11-.055.361.361 0 0 1-.149.092c-.073.009-.147 0-.193 0h-.148s-.083.073-.138.082c-.056.01-.176.01-.268.01-.037.045-.11.082-.11.082l-.102.155-.139-.064v.028a.336.336 0 0 1-.24.1.276.276 0 0 1-.157.101h-.027a.542.542 0 0 1-.296.21.32.32 0 0 1-.212.193c-.046.009-.12-.01-.129.009-.01.018-.01.037-.01.055-.036.137-.147.201-.211.238l-.056.064h-.074v.046c-.046.155-.184.229-.295.284a.421.421 0 0 1-.23.348l-.02.073-.147.21a.38.38 0 0 1-.157.193v.027l-.073.137-.25.293-.055.11a.348.348 0 0 1-.166.312l.046.173-.055.055v.019l-.13.174a.384.384 0 0 1-.101.146c-.01.018-.037.037-.055.064v.073a.557.557 0 0 1-.13.275c-.009.018-.009.037-.009.055-.018.046-.129.22-.24.32.01.046.01.092 0 .138l-.037.11a.416.416 0 0 1-.166.201c-.009 0-.018.018-.018.018.009.083.009.147-.01.21a.435.435 0 0 1-.147.193v.092a.367.367 0 0 1 0 .174.617.617 0 0 1-.13.22v.073c-.008.045-.045.1-.045.1l.055.138-.185.137c0 .146 0 .348-.175.504.01.055.019.119 0 .21l-.046.12c-.01.045-.037.082-.065.118.019.092.028.174.019.247-.01.046-.028.092-.056.174-.027.083-.083.174-.083.174v.128a.344.344 0 0 1-.083.138.573.573 0 0 1 .019.256c-.01.046-.028.082-.037.11a.534.534 0 0 1-.083.384.416.416 0 0 1 .018.266l-.037.137a.212.212 0 0 1-.064.12v.11c0 .1.018.21 0 .31l-.019.129-.101.064v.018l-.028.119s.074.1.092.156c.037.128-.009.229-.074.32l.084.082v.34l-.028.137c.01.11.01.256-.065.375l.056.091c.037.11 0 .211-.047.275l.047.082s.064.239.037.376c0 .037-.019.073-.047.137 0 .018 0 .046.019.083.028.054.055.1.083.164.046.129.028.23.018.284.019.073.019.156.019.21v.092c.12.147.138.266.11.366a.552.552 0 0 1 .047.303.325.325 0 0 1 .101.146.578.578 0 0 1 .028.21v.047s.046.064.055.1c.019.037.102.44.074.568l-.018.082.138.147-.203.146s-.01.092-.018.147c-.019.073-.139.21-.24.293-.01.018-.01.036-.01.055-.027.128-.286.32-.286.32-.009.027-.018.073-.036.128l.083.238-.268.018s-.092.248-.268.303a.56.56 0 0 1-.129.128v.046c0 .054 0 .119-.018.183l-.028.091-.055.046c-.028.146-.065.229-.166.311.018.147-.084.257-.157.339v.073a.212.212 0 0 1-.065.12.358.358 0 0 1-.065.21.752.752 0 0 1-.101.137c0 .01-.019.073-.019.073l-.018.064-.074.083a.297.297 0 0 1 0 .201v.083l-.046.055a.447.447 0 0 1-.12.265.346.346 0 0 1-.037.266c0 .036-.01.11-.01.11l-.054.11s-.01.054-.01.082c0 0-.083.009-.055.119.028.11.01.229-.055.32a.39.39 0 0 1-.037.23c.009.045.009.1-.01.155v.064s0 .091-.018.146l-.018.064s-.01.101-.019.147v.055l-.046.055a.354.354 0 0 1-.065.21l.028.073-.037.046c.028.073.055.156.028.238a.772.772 0 0 1-.148.21v.22l.065.138a1.04 1.04 0 0 1 0 .339l-.046.137a.44.44 0 0 1-.028.165.284.284 0 0 1 .046.091c.01.064.01.128.01.174l.027.074c.018.082-.01.173-.055.283 0 .074.037.202 0 .34a.935.935 0 0 1 .018.182l.028.037-.028.275a.567.567 0 0 1 .065.33.55.55 0 0 1 .018.33c0 .017.028.035.028.063.009.055.027.146-.019.247l.111.119-.046.201c.018.055.037.101.037.138a.353.353 0 0 1 .064.338v.156s.056.073.074.128c0 .01.037.174.037.302.11.128.093.302.093.376.009.073.027.128.046.183.027.082.055.165.073.229.01.046.037.1.056.155.037.083.064.156.074.202v.119c.046.055.083.1.092.165.028.1.018.201-.019.283l.056.147-.074.119c-.13.21-.342.201-.378.21l-.047.037-.138.083h-.175l-.443.063.092-.31a.853.853 0 0 1-.25-.303l-.018-.055v-.064a.367.367 0 0 1-.073-.238c-.047-.091-.065-.192-.083-.275l-.019-.091s-.028-.073-.028-.11a.406.406 0 0 1-.11-.192v-.138c-.065-.064-.056-.174-.028-.31-.01-.028-.028-.074-.028-.138-.009-.028-.027-.055-.027-.092a.274.274 0 0 1-.102-.155c-.01-.055-.01-.11-.01-.165a.345.345 0 0 1-.082-.138.416.416 0 0 1 0-.237.39.39 0 0 1-.037-.266l-.083-.183.028-.092v-.11s-.056-.073-.074-.128a2.312 2.312 0 0 1-.037-.265.645.645 0 0 1 0-.266c-.01-.018-.028-.036-.028-.064a3.014 3.014 0 0 1 0-.577v-.32l-.028-.073a1.375 1.375 0 0 1 .028-.568.34.34 0 0 1-.028-.265.261.261 0 0 1 .074-.128c-.009-.019-.037-.065-.037-.065l-.12-.164.12-.156a.515.515 0 0 1-.009-.238v-.1l.12-.138v-.055a.428.428 0 0 1-.055-.33l.027-.119s.01-.045.01-.064a.378.378 0 0 1 .129-.174v-.064c-.037-.055-.065-.091-.065-.146-.018-.073.019-.302.028-.376l.037-.128a.407.407 0 0 1 .101-.238.43.43 0 0 1 .019-.284.64.64 0 0 1 .101-.33.517.517 0 0 1 .12-.43c-.009-.082-.009-.21 0-.274a.343.343 0 0 1 .083-.138c0-.054.01-.11.019-.146a.385.385 0 0 1 .12-.165v-.091l.037-.128c.018-.065.083-.129.129-.174v-.11l-.01-.055a.45.45 0 0 1 .148-.247c.028-.101.046-.183.083-.266l.046-.11v-.1l.074-.083.028-.027.037-.11a.467.467 0 0 1 .11-.183c.028-.101.093-.266.24-.339a.378.378 0 0 1 .139-.174l.046-.156c.019-.073.065-.119.11-.164-.008-.046 0-.101.01-.147a.328.328 0 0 1 .157-.201v-.019c.028-.11.11-.192.212-.293.028-.027.102-.091.102-.091v-.082c.018-.083.12-.193.212-.257v-.091c-.083-.147-.157-.266-.11-.412l-.038-.064.028.064c-.046-.074-.074-.11-.092-.174v-.257s-.046-.073-.056-.11c0-.018.019.01.047.028l.083-.275-.148.23a1.333 1.333 0 0 1-.305-.404v-.073l-.073-.073h-.056l-.138-.083-.093-.1v-.064a.44.44 0 0 1-.083-.257.519.519 0 0 1-.073-.036l-.083-.083a5.056 5.056 0 0 1-.111-.146l-.102-.174s-.018-.064-.018-.12a.422.422 0 0 1-.148-.2c-.018-.019-.037-.056-.055-.092l-.028-.073-.018-.055v-.037l-.093-.018-.027-.202v-.091s-.046-.073-.056-.11v-.21s-.055-.037-.074-.065c-.073-.1-.064-.21-.055-.302-.12-.128-.12-.284-.12-.366 0 0 .01-.01.01 0-.074-.11-.065-.22-.047-.32-.074-.101-.11-.202-.092-.303a1.016 1.016 0 0 1-.019-.522c-.046-.1-.073-.155-.082-.2v-.202l.055-.073c0-.083.01-.138.018-.202-.027-.037-.064-.137-.027-.275-.019-.1-.056-.256-.019-.402a.487.487 0 0 1 .01-.303.857.857 0 0 1 .018-.347v-.055l.064-.092s-.018-.055 0-.11L36 14.825l.018-.028v-.21l.111-.11v-.138c0-.064.01-.128.028-.183v-.055l-.046-.045h-.037a.405.405 0 0 1-.166-.101l-.157-.156s-.037-.073-.037-.11h-.092l-.12-.027h-.028l-.286-.028.018-.146a.324.324 0 0 1-.23-.22.272.272 0 0 1-.157-.174.266.266 0 0 1-.102-.1l-.055-.092v-.018s-.01-.028-.01-.037c-.009-.027-.009-.055-.009-.082a.421.421 0 0 1-.175-.312l-.028-.082h-.046l-.083-.247-.027-.11-.213-.247.139-.12s-.037-.072-.037-.118c-.01-.046 0-.1.009-.147l-.065-.11c-.027-.073-.027-.476 0-.558l.028-.091a.736.736 0 0 1 0-.202l.028-.119s.009-.046.009-.064c.01-.018.019-.064.046-.11.019-.027.046-.073.046-.1-.009.018-.018-.037 0-.101.028-.12.12-.202.25-.248l-.074-.082.267-.43c.028-.1.111-.165.176-.21.027-.047.073-.12.175-.248.037-.055.12-.146.12-.146l.148-.174h.092a.422.422 0 0 1 .221-.184h.046c.102-.11.268-.21.406-.265a.459.459 0 0 1 .425-.146c.046-.019.083-.019.11-.019a.507.507 0 0 1 .084-.064.408.408 0 0 1 .203-.064c.046-.01.424-.082.59-.037.028 0 .047.019.065.019-.018-.074-.018-.147-.018-.21-.056-.138-.093-.202-.093-.285v-.073a.34.34 0 0 1-.138-.21l-.102-.147v-.046c-.055-.036-.101-.11-.12-.21-.027-.028-.046-.055-.064-.074a.314.314 0 0 1-.13-.073l-.092-.1v-.037s-.027-.018-.027-.028c-.148.01-.25-.055-.351-.192-.019-.018-.037-.064-.065-.1-.101-.01-.24-.046-.323-.174-.046 0-.083 0-.12-.01a.488.488 0 0 1-.147-.082c-.037-.028-.139-.092-.139-.092l-.147-.055h-.102l-.018.019-.166.018c-.074 0-.12-.027-.277-.11a1.003 1.003 0 0 1-.102-.055.361.361 0 0 1-.147.092c-.074.018-.139.009-.194.009h-.148s-.083.073-.138.082c-.056.01-.176.01-.268.01a.52.52 0 0 1-.12.091.372.372 0 0 1-.194.064l-.027.046a.337.337 0 0 1-.24.1.276.276 0 0 1-.157.101h-.028a.542.542 0 0 1-.295.211.32.32 0 0 1-.212.192c-.047.01-.093.01-.13.01-.009.009-.009.036-.009.054a.436.436 0 0 1-.221.238l-.046.064h-.074s-.01.028-.01.046c-.046.147-.184.22-.295.275a.433.433 0 0 1-.23.348l-.019.091-.148.21a.338.338 0 0 1-.147.184v.027l-.074.138-.25.293-.055.11a.36.36 0 0 1-.175.32c-.018.018-.037.027-.046.037 0 .027-.01.073-.01.073l-.055.11s-.009.055-.009.082a.35.35 0 0 1-.138.192.61.61 0 0 1-.083.193.849.849 0 0 1-.093.128c-.009 0-.027.018-.027.027.009.046.009.092 0 .138l-.056.119v.045a.364.364 0 0 1-.147.202.39.39 0 0 1-.046.22v.027l-.065.11a.415.415 0 0 1-.11.11c.008.064.008.155-.01.22a.413.413 0 0 1-.148.2v.092a.369.369 0 0 1 0 .174.619.619 0 0 1-.129.22v.073l-.046.101.055.137-.184.138c0 .146 0 .348-.176.503 0 .055.019.128 0 .21l-.046.129s-.037.073-.064.11c.018.091.027.174.018.247 0 .046-.028.092-.055.174-.019.082-.074.174-.074.174v.119a.323.323 0 0 1-.083.146c.018.074.037.156.018.257-.009.046-.027.082-.037.11.019.146 0 .283-.083.384a.41.41 0 0 1 .019.266l-.037.137a.288.288 0 0 1-.065.119v.11c.01.11.019.22 0 .32l-.018.129-.11.063v.019l-.029.11s.074.091.093.146c.037.128-.019.238-.074.33l.083.082v.339l-.028.137c.01.12.01.266-.064.385l.055.1c.037.11-.01.211-.046.275l.046.073c.018.074.018.284 0 .348-.01.037-.037.101-.037.101v.018a.88.88 0 0 1 0 .312.658.658 0 0 1 0 .357l.074.091-.037.128c-.037.147-.046.275-.01.348l.029.192-.019.065a.74.74 0 0 1 .046.466l-.046.101s.083.083.102.156c0 .055.009.137 0 .21.055.156.073.33.055.43.018 0 .046.083.046.184l.046.091c.019.083.01.174.01.247.147.12.147.275.129.367a.263.263 0 0 1 .037.055l.064.128-.055.119a.552.552 0 0 1 .027.21.461.461 0 0 1-.083.211.433.433 0 0 1 .01.22l-.056.128v.018s-.11.165-.24.22c0 .064-.037.119-.083.165l-.11.1h-.01s-.092.074-.157.101h-.027c0 .064-.01.138-.074.21a.26.26 0 0 1-.074.129c-.037.027-.074.055-.12.064-.028.046-.064.091-.12.165l-.018.018c-.046.137-.102.22-.259.284l-.055.018.074.247-.194.11s-.018.083-.055.128v.046a.332.332 0 0 1-.185.21c-.01.02-.028.046-.028.046v.138l-.193.274a.456.456 0 0 1-.111.193.49.49 0 0 1 0 .165l-.037.091.064.183-.249.064c.01.073.01.138-.009.183a.395.395 0 0 1-.11.165.437.437 0 0 1-.185.403c0 .018-.019.027-.028.046 0 0-.028.165-.037.238a.356.356 0 0 1-.046.274s0 .055-.01.074h-.008c0 .073 0 .155-.065.247a.22.22 0 0 1 0 .11.35.35 0 0 1-.083.165c.01.082 0 .192-.01.247a.388.388 0 0 1-.091.155c-.01.019-.01.065-.01.065l.102.2-.12.13c.018.127-.028.265-.148.42v.028c.019.073.074.274 0 .457a.336.336 0 0 1 0 .193l-.055.11v.137c.037.119.018.22.009.274l.092.147-.129.137c.046.138.01.275-.01.357a.744.744 0 0 0-.018.083l.056.11-.056.073s.037.055.037.082c.028.101 0 .183-.018.238 0 .046.027.165-.037.275.037.037.092.156.055.302l-.018.064a.354.354 0 0 1 .064.21c0 .065-.009.129-.037.193.056.1.12.247.093.403 0 .027.027.055.027.091.01.055.01.12.01.156l.055.046-.018.275.046.091.018.11.157.119-.074.11s.028.036.028.064v.046l.01.018.027.082a.385.385 0 0 1 0 .23c.101.136.184.32.194.365v.147c.073.1.083.21.064.293.056.046.093.11.12.183.028.11.01.192-.009.247v.019l-.046.1c-.13.22-.342.229-.452.22-.056.055-.102.1-.176.119 0 0-.332.073-.48-.073l-.083-.092v-.137s-.037-.037-.055-.064c-.064-.064-.148-.174-.148-.174l-.037-.11v-.147a.382.382 0 0 1-.101-.201v-.073a.48.48 0 0 1-.037-.21.466.466 0 0 1-.11-.193c-.01-.055-.01-.1-.01-.156l-.055-.073v-.165l-.01-.036-.064-.129c-.01-.055-.01-.11-.01-.146a.31.31 0 0 1-.055-.11v-.174s-.055-.1-.027-.247l-.093-.11.037-.137c.028-.083.01-.183 0-.284l-.018-.11a1.203 1.203 0 0 1-.028-.448.354.354 0 0 1-.018-.257.74.74 0 0 1-.037-.229v-.055l-.019-.055a.325.325 0 0 1 0-.21.324.324 0 0 1 0-.21.418.418 0 0 1 .111-.175.461.461 0 0 1-.083-.146.622.622 0 0 1 0-.32c.01-.056 0-.239 0-.284a.309.309 0 0 1 0-.183h-.01v-.22l.084-.156a.71.71 0 0 1-.01-.366l.019-.082a.409.409 0 0 1 .12-.34c0-.036-.01-.09 0-.146-.028-.082-.028-.165-.028-.21l.037-.293c.01-.092.037-.22.037-.22l.028-.092.064-.054c.028-.101.028-.12.01-.184l-.047-.174.084-.082s.018-.11.055-.174c.028-.036.046-.064.074-.091a.481.481 0 0 1 0-.257l.055-.11s0-.073.01-.11c0-.036.027-.063.082-.155a.77.77 0 0 0 .139-.348c-.01-.064 0-.137 0-.137v-.12l.148-.11c-.01-.063 0-.127.009-.191.027-.101.092-.156.175-.23l.018-.018.037-.348c.037-.128.231-.256.231-.256.028-.018.056-.037.083-.037a.51.51 0 0 1 0-.238c.019-.091.074-.155.12-.21-.01-.027 0-.073.01-.12.018-.09.082-.146.138-.191a.807.807 0 0 1 .11-.293c.019-.028.056-.074.056-.074v-.036l.092-.11a.705.705 0 0 1 .212-.156c0-.045.01-.091.01-.128v-.1l.203-.211h.064l.046-.092c.019-.036.047-.064.065-.082.01-.1.074-.183.138-.229l.019-.046s.055-.082.12-.119a.373.373 0 0 1 .11-.128c.02-.046.074-.192.213-.247a.515.515 0 0 1 .074-.12v-.136a.475.475 0 0 1 0-.23c0-.009-.019-.045-.019-.073-.018-.064-.046-.137-.046-.228l-.092.036c-.11.037-.194 0-.25-.009l-.258.027c-.092.01-.203-.009-.203-.009l-.11-.045a.402.402 0 0 1-.305.054h-.148a.597.597 0 0 1-.249-.018h-.101l-.139.046c-.074.01-.258.01-.341 0-.037-.01-.056 0-.139.018a.45.45 0 0 1-.249 0l-.055.064-.212-.082a.5.5 0 0 1-.305.018l-.166.083-.13-.074s-.027-.018-.045-.027l-.056.027h-.018l-.139.257-.018-.019-.019.074v.018a.6.6 0 0 1-.009.256l-.064.12a.367.367 0 0 1 .037.274.863.863 0 0 1-.083.192l.046.083a.405.405 0 0 1-.083.366v.1a.781.781 0 0 1-.056.174c.028.11.046.248-.046.367v.073l-.046.1.037.065-.083.128c-.046.064-.083.146-.157.21v.211h-.019l-.203.22-.027.027c0 .12-.019.275-.176.376-.018.009-.027.027-.046.027 0 .11-.055.192-.092.238l.046.22-.221.018a.382.382 0 0 1-.166.22c-.019.009-.037.027-.056.027v.019a.377.377 0 0 1-.129.174.28.28 0 0 1-.074.119l-.101.091h-.056l-.064.037h-.037a.412.412 0 0 1-.342.201c-.009.018-.018.028-.027.046a.442.442 0 0 1-.314.192c-.148.12-.23.174-.305.193-.055.018-.101.027-.138.045-.056.019-.102.037-.157.055a.488.488 0 0 1-.25.128h-.211s-.056.055-.093.074c.01.036.019.073.037.11a.394.394 0 0 1 .194.21v.055s.083.073.11.119l.232.1-.111.156s.037.074.046.12a.851.851 0 0 1 0 .265c.092.165.138.302.184.485.01.046.019.128.019.128.083.092.11.22.083.339.01.1.065.375.092.43v.165l-.027.073a.485.485 0 0 1 0 .257v.082c.018.073.046.183.018.311a.453.453 0 0 1-.092.174c.009.019.018.037.018.055.046.11.056.23.037.339l-.028.073a.78.78 0 0 1-.092.376c0 .055-.01.11-.037.164 0 .064-.027.11-.055.147 0 .046 0 .073-.01.11a.569.569 0 0 1-.156.201c.009.037 0 .073 0 .12a.363.363 0 0 1-.12.2v.12l-.111.128-.018.073-.028.1-.083.056c-.083.064-.148.11-.148.11l-.12.045-.064.083v.027s.027.11 0 .202v.054l-.102.12s-.083.064-.12.073c-.027.027-.055.064-.101.091-.046.019-.083.046-.111.055-.074.192-.203.247-.268.275a.515.515 0 0 1-.332.247.492.492 0 0 1-.184.11l-.083.018h-.019s-.055.055-.092.073l-.093.055h-.018s-.028.01-.037.01h-.046l-.037.009a.407.407 0 0 1 .083.091c.074.12.074.156.074.183v.037c.074.073.11.192.074.375.092.064.203.183.221.257a.41.41 0 0 1 .028.146c.028.037.065.083.092.147l.028.073v.018l.018.055a.43.43 0 0 1-.037.293v.11l.074.119a.273.273 0 0 1 .111.156c.037.137 0 .31-.037.43a.476.476 0 0 1 .046.412.376.376 0 0 1-.11.155.37.37 0 0 1 .101.321l-.055.119s-.056.11-.074.174c-.028.092-.056.174-.065.229.019 0 .019.046 0 .11v.082l-.12.137a.55.55 0 0 1 0 .174l-.037.101v.018l-.064.11a.4.4 0 0 1-.185.147 1.033 1.033 0 0 1-.092.174.457.457 0 0 1-.055.22c-.01.027-.056.073-.056.073v.42l-.212-.036a.365.365 0 0 1-.258.284c0 .027-.047.11-.157.201 0 0-.01-.009-.102.083-.092.091-.13.128-.203.155-.046.11-.23.293-.332.32v.02l-.203.155h-.056s-.027.018-.037.027c-.082.064-.138.12-.22.138h-.029l-.027.128h-.148c.11.1.203.21.23.293.01.027.028.073.028.11 0 0 .037.027.065.055.13.11.203.173.23.274.02.083.01.21 0 .257v.018c.047.046.075.1.093.165a.352.352 0 0 1 .037.045l.055.11a.754.754 0 0 1 .028.247v.065a.484.484 0 0 1 .102.192.746.746 0 0 1 0 .32l-.019.064-.065.073c.084.074.12.174.12.303 0 .027.046.119.037.247l.019.046a.383.383 0 0 1-.028.283c0 .065-.028.129-.055.193a.422.422 0 0 1 .018.265l-.055.11v.311l-.11.129c-.029.11-.084.192-.12.256l-.056.082v.156l-.12.055v.027c-.037.12-.12.174-.185.22-.009 0-.018.018-.027.018a.327.327 0 0 1-.083.183l-.065.074.092.265-.314-.046c-.046.046-.101.064-.147.083l.037.164a.433.433 0 0 1 .12.138c.092.046.166.1.23.155.065.055.148.092.148.092l.083.028.101.11c.056.027.185.073.25.192.064.027.101.064.147.11.083 0 .157.018.231.045h.046l.24.193v.045s.092.046.139.055h.083l.221.21v.028c.055.037.11.074.148.129l.064.027c.083.018.213.046.314.156.037 0 .083 0 .12.018.046.009.065.027.166.082.028.028.065.046.102.064.073.037.157.101.221.165l.028.028a.4.4 0 0 1 .148.009c.073.018.11.055.193.119l.093.055c.073.027.184.064.276.174.102.027.185.073.259.11.037.018.101.045.101.045l.083.037s.037.018.074.027a.382.382 0 0 1 .203.156c.065.01.139.018.212.064a.394.394 0 0 1 .111.1c.065 0 .12.02.175.056.037.027.065.055.093.082a.38.38 0 0 1 .258.1c.046-.008.13.01.194.083l.028.028c.101.018.184.064.258.1.037.019.11.046.11.046l.12.064a.44.44 0 0 1 .213.064s.055.046.101.092l.065-.018.074.073h.11l.102.037h.01l.11.064a1 1 0 0 0 .092.073c.074 0 .157.009.194.009.065.018.13.046.176.092.073 0 .156.027.221.064 0 .009.046.036.102.091l.147.028s.065.009.102.018c.064.01.092.037.157.092l.157-.074.138.165h.01c.064-.01.138 0 .202.01l.11.054h.066l.12.055c.082 0 .175.018.249.064.064 0 .12.028.193.055l.139.046.092-.1.259.127c.11-.009.212.019.304.074l.083-.074.055.037h.093l.157.064.037-.027.147.036c.12.028.13.028.148.028.101-.019.424.036.424.036l.102.046.11.028h.231a.37.37 0 0 1 .323.054.752.752 0 0 1 .286 0l.12.065s.056-.037.083-.037c.093-.018.37 0 .37 0l.138.046c.046 0 .092.018.138.045a.451.451 0 0 1 .166-.064l.166-.027.056.064h.01a.413.413 0 0 1 .294.037c.056.009.111.018.157.045a.33.33 0 0 1 .305-.036h.037s.027-.019.046-.019c.138-.027.267 0 .36.019h.018c.046-.028.12-.028.12-.028h.074l.065.037c.074-.028.157-.055.249-.028l.083.028.11.018.231-.11.148.147s.083-.01.13-.01c.036 0 .082.01.12.01a.336.336 0 0 1 .294-.028h.047l.036-.018s.25-.064.471-.018V52.8Z" fill="#fff"/><path d="m19.675 29.812-.065-.092-.074-.055v-.229l.056-.137s.009-.082-.065-.247c-.018-.028-.064-.083-.101-.128a.567.567 0 0 1-.102-.165s.028-.028-.018-.064a.309.309 0 0 1-.111-.165l-.028-.055-.083-.091v-.12c-.037-.064-.064-.119-.092-.174v-.036a.42.42 0 0 1-.175-.156h-.047l-.101-.064-.13-.128v-.018h-.165c-.056 0-.12.027-.12.027l-.074.055-.23-.037c-.084.019-.158.019-.213.019-.157.018-.23 0-.277-.01a.421.421 0 0 1-.295-.018h-.111a.327.327 0 0 1-.148-.082c-.11.018-.24.018-.369.018h-.203a.563.563 0 0 1-.314-.036c-.083.009-.166.018-.24-.019a.497.497 0 0 1-.267-.036c-.037.018-.092.018-.166 0h-.037l-.148-.019a5.384 5.384 0 0 1-.554-.11l-.378-.082s-.083.018-.148 0l-.11-.055s-.046-.009-.074-.009a.283.283 0 0 1-.185-.128c-.027-.01-.055-.018-.092-.028-.157.037-.323-.027-.397-.055l-.11-.036c-.065-.018-.139-.046-.203-.064a.294.294 0 0 1-.139-.083h-.018l-.093-.018c-.055-.01-.138-.073-.193-.137-.065-.019-.111 0-.148-.019a.382.382 0 0 1-.203-.155h-.083c-.074-.019-.11-.055-.185-.12-.018-.008-.027-.027-.046-.036h-.037a.902.902 0 0 1-.212-.027c-.074-.01-.12-.046-.194-.11-.009-.01-.027-.01-.027-.01h-.065l-.12-.11s-.037-.036-.046-.054a.877.877 0 0 1-.259-.11c-.092-.046-.147-.11-.193-.156-.046-.055-.056-.064-.093-.073-.018 0-.046-.018-.046-.018l-.074.064-.11-.037-.12.083-.037-.019v.055l-.203-.064h-.01l-.083.028-.11-.037-.065.018h-.083c-.083.092-.194.12-.258.138-.046.045-.093.091-.176.11l-.027.036c-.074.064-.111.1-.176.12-.046.017-.092.017-.129.017a.341.341 0 0 1-.101.046c-.093.028-.102.028-.148.064h-.028v.019a.376.376 0 0 1-.092.192l-.268.247H8.14l-.028.073v.055l-.203.21h-.074l-.018.028h-.019c-.018.073-.028.101-.028.128-.073.23-.11.293-.129.32a.413.413 0 0 1-.083.092v.055l-.018.092-.065.055v.1a.857.857 0 0 1-.083.165l-.13.257-.018.128-.018.073c0 .128-.065.22-.092.256a.742.742 0 0 1-.102.33l-.027-.1c.046.1.046.2.027.274l-.037.119c-.018.165-.018.33 0 .494.01.065 0 .12 0 .165.046.046.074.11.093.174a.358.358 0 0 1-.01.22v.055c.037.073.065.146.083.21.056.046.102.101.12.174v.046l.01.037c.055.036.092.1.11.165.01.018.01.045.01.073.055.045.092.11.11.174.01.036.093.137.203.22a.415.415 0 0 1 .111.11c.185.082.498.347.545.42.009.01.009.019.009.019a.41.41 0 0 1 .194.11c.11.018.212.073.286.155.11.019.212.092.267.193a.76.76 0 0 1 .12.11l.12-.074.397.22.101.018.111.055s.037.01.056.01c.055.017.138.09.138.09l.12-.036.074.046.267-.073v.201s.028.018.037.018a.363.363 0 0 1 .24.037h.102a.332.332 0 0 1 .194.137h.221c.175-.055.323.046.388.092a.6.6 0 0 0 .221 0c.13-.028.23 0 .305.037l.12-.065.138.11s.138.028.222.028c.083 0 .156 0 .221.018h.046a.313.313 0 0 1 .24.028c.092-.01.185 0 .258.054a.07.07 0 0 1 .047-.018.319.319 0 0 1 .323.064.453.453 0 0 1 .221 0l.12.055c.055-.009.101 0 .148.01.046.008.11.045.11.045v-.018l.13-.037c.12-.036.221.019.286.055a.753.753 0 0 1 .35.01c.037.008.083.027.139.045h.083l.11.018.185-.11.102.019c.064.009.12.027.175.064l.037-.028c.138-.036.249-.054.341-.036h.176c.083-.074.193-.147.332-.11h.13l.184-.1.046-.037h.064s.047-.019.065-.019h.11s.111-.091.176-.11c.028-.009.065-.009.065-.009l.037-.183.193.064.379-.247.092-.018h.018a.525.525 0 0 1 .194-.266l.056-.027s.018-.055.037-.073c.055-.074.12-.129.175-.174a.303.303 0 0 1 .01-.156.348.348 0 0 1 .174-.22c0-.055 0-.11.019-.155a.325.325 0 0 1 .138-.183c.01-.083.019-.184.065-.284l.046-.101c.01-.046.01-.1.028-.147l.055-.128a2.55 2.55 0 0 1 .092-.448c-.009-.073-.027-.183 0-.284a.412.412 0 0 1 0-.284.557.557 0 0 1 0-.247c.01-.046.01-.128.01-.202l.009.01ZM37.891 9.99s-.01-.09 0-.127c.01-.019.065-.046.065-.065.027-.1.018-.238.064-.375.028-.1 0-.192.028-.311 0 0 .065-.073.065-.092v-.1s.092-.064.092-.092c.018-.055-.046-.092-.028-.156-.055-.082-.157-.027-.24-.045 0 0-.018-.028-.027-.028-.046-.018-.056.028-.065.028-.055.009-.138-.01-.194 0-.009 0-.083.064-.092.064-.102.027-.24 0-.314-.092h-.027c-.037.128-.314.11-.333.128 0 .01.019.11-.046.129-.184.054-.332.183-.507.283-.102.055-.111.147-.222.193-.092.036-.037.073-.13.128-.073.046-.11.165-.156.192-.13.073-.028.046-.083.137-.046.064-.12.064-.175.083-.019 0-.102.11-.139.137-.018.037.065.064.065.092.01.027-.019.064.028.091.018.046-.065.092-.093.128a.49.49 0 0 1-.027.092c-.01.018-.065.046-.065.064 0 .027.083.165 0 .22l.065.128-.065.128c.065.037 0 .12.065.156l-.065.128c.12.183.175.357.13.55.091-.02.054.008.064.045 0 .01.027.018.027.027.019.083-.027.101-.027.129-.019.082.074.073.11.082.056.01.12.156.139.201.065.129.148.138.194.284.018.064.258.064.286.156.009.036-.01.073.046.11.11-.064.166.055.258.091h.065l.13.092h.064s.027.046.092.027c.065-.009.037-.1.046-.137.01-.073.083-.21.092-.256.01-.046-.009-.11 0-.156 0-.01.084-.092.093-.128.018-.055-.019-.11.064-.156-.11-.1.019-.21.028-.256 0-.064 0-.174.028-.257.018-.064.129-.082.129-.082 0-.01.027-.082.027-.082l-.064-.092.028-.11c.009-.009.129.028.027-.11.028-.027.065-.128.111-.137h.065s-.01-.165-.019-.201c-.009-.019.019-.064-.027-.092.064-.055.046-.137.064-.192.019-.055.13-.138.13-.156.008-.036 0-.201 0-.201h.064c-.019-.073.083-.192.092-.238ZM17.727 37.859s.019-.018.019-.027c-.065-.11-.092-.23-.065-.348 0-.064-.018-.129 0-.22l.028-.11v-.1a.467.467 0 0 1-.101-.165c-.056-.074-.093-.12-.111-.193l-.019-.11v-.018l-.018-.064c0-.046-.018-.1-.018-.146a.68.68 0 0 1-.084-.165c-.046-.055-.092-.11-.11-.183h-.111l-.028-.302-.083-.074L17 35.48s-.028-.073-.028-.083c-.01 0-.028-.027-.028-.027l-.083-.046-.018-.018h-.019c-.064 0-.129 0-.175-.01h-.13a.63.63 0 0 1-.202.074c-.12.018-.231 0-.314-.019-.028-.018-.102-.018-.102-.018l-.138.128-.157-.091h-.092c-.065 0-.139 0-.222-.019h-.055l-.102-.054c-.11.027-.23.009-.313 0h-.12c-.056.009-.333.018-.416-.019h-.037a.586.586 0 0 1-.258.019c-.046-.019-.092-.019-.13-.019-.045 0-.082-.009-.119-.009-.046-.009-.11-.009-.175-.009-.111 0-.213 0-.296-.028l-.064-.018-.065-.055-.055.019s-.259.027-.36 0c-.056-.01-.12-.055-.176-.12-.046.019-.083.037-.12.037-.082.01-.212 0-.285 0l-.139-.027c-.046 0-.092 0-.138-.01-.056-.009-.111-.036-.167-.064h-.018a1.012 1.012 0 0 1-.332 0l-.074-.018-.157.064-.037-.155c-.101.009-.249.009-.313-.019h-.056l-.13-.073c-.073-.01-.137-.027-.211-.046-.046-.018-.093-.046-.148-.073-.12-.01-.314.01-.461-.165a.494.494 0 0 1-.314-.1h-.083l-.092-.019-.056-.064s-.083.01-.129 0c-.11-.027-.277-.174-.37-.275-.027-.009-.055-.027-.091-.045 0-.01-.028-.019-.037-.028a.548.548 0 0 1-.213 0h-.101L8 33.776a.397.397 0 0 1-.23-.183.946.946 0 0 1-.194.073c-.047.046-.12.11-.222.11a.34.34 0 0 1-.13.055H7.18a.346.346 0 0 1-.194.146H6.93l-.028.01a.318.318 0 0 1-.083.054.613.613 0 0 1-.194.138.326.326 0 0 1-.138.164.867.867 0 0 0-.185.184.354.354 0 0 1-.12.11v.027l-.074.064c-.018.055-.074.119-.074.119l-.064.055c0 .055-.01.1-.019.146-.018.101-.092.156-.184.238l-.074.074a.407.407 0 0 1 .01.256l-.056.11v.046c-.019.091-.083.146-.148.201.01.073.01.137 0 .192l-.046.11c.037.1.037.21.019.312l-.019.073c0 .091-.018.174-.037.265H5.38c-.009.064-.027.156-.027.183.055.092.073.165.055.275a.31.31 0 0 1 .028.284v.027a.3.3 0 0 1 .11.284l.074.201c.056.046.102.11.13.184l.045.128v.018l.01.018c.11.138.23.33.249.495.13.055.221.201.221.201s.037.092.046.1v.065l.047.018.083.055c.055.055.092.12.129.174.018.019.046.064.055.073.019.01.12.074.194.129 0 0 .295.238.341.384.056.01.093.01.093.01l.092.036.185-.073.055.238a.552.552 0 0 1 .138.082.622.622 0 0 1 .213.092c.064.009.11.036.184.073.074.036.13.073.166.1.046 0 .093.019.139.028.092.018.138.027.175.037a.348.348 0 0 1 .212.146h.213l.147.082c.074.01.139.037.203.074l.12-.074.139.074s.055.027.083.045c.074-.009.147 0 .221.019h.074c.055 0 .12-.01.185 0 .064.018.129.046.184.082.13-.018.286-.009.406.018l.092.028c.111-.01.213.018.305.073.083.019.148.028.194.055a.624.624 0 0 1 .11-.055c.047-.018.111-.018.176-.018h.175c.194.018.388.037.517.073a.378.378 0 0 0 .203 0c.065-.009.12-.018.184 0a.433.433 0 0 1 .333-.064l.11.046h.167s.073-.055.129-.073a.388.388 0 0 1 .249 0h.01s.248-.037.396-.037c.055-.037.13-.046.23-.037a.32.32 0 0 1 .222-.027c.01 0 .037 0 .092-.037.083-.046.194-.119.342-.091.028-.028.055-.055.092-.083.074-.045.157-.073.23-.1a1.85 1.85 0 0 0 .167-.074l.194-.201.074.073h.009c.055-.073.166-.137.166-.137l.138-.147.065.037a.477.477 0 0 1 .157-.174c.027-.018.055-.037.083-.064.046-.037.092-.073.148-.11a.434.434 0 0 1 .184-.201c.092-.138.305-.43.452-.476l.056-.019h.018l.046-.064-.083-.283.074-.101a.307.307 0 0 1 .13-.183c0-.064.027-.12.045-.174a.417.417 0 0 1 .102-.183c-.01-.037 0-.074.01-.12l.027-.1v-.037a.316.316 0 0 1 .055-.284l.046-.073.01-.009ZM48.633 11.062c.018-.055-.047-.092-.028-.156-.055-.082-.157-.027-.24-.046-.01 0-.018-.027-.028-.027-.046-.018-.055.027-.064.027-.056.01-.139-.009-.194 0-.01 0-.083.065-.092.065-.102.027-.24 0-.314-.092h-.028c-.037.128-.314.11-.332.128 0 .01.018.11-.046.128-.185.055-.332.184-.508.284-.101.055-.11.147-.221.192-.092.037-.037.074-.13.129-.073.045-.11.164-.156.192-.13.073-.028.046-.083.137-.046.064-.12.064-.176.083-.018 0-.101.11-.138.137-.018.037.065.064.065.091.009.028-.019.065.027.092.019.046-.064.092-.092.128 0 .01-.018.073-.028.092-.009.018-.064.045-.064.064 0 .027.083.165 0 .22l.064.128-.064.128c.064.037 0 .119.064.155l-.064.129c.12.183.175.357.129.549.092-.018.055 0 .064.046 0 .009.028.018.028.027.019.083-.028.101-.028.128-.018.083.074.074.111.083.056.009.12.155.139.201.064.128.147.138.193.284.019.064.259.064.286.156.01.036-.009.073.047.11.11-.065.166.054.258.091h.065l.129.092h.064s.028.045.093.027c.064-.009.037-.1.046-.137 0-.074.083-.21.092-.257.01-.045-.01-.11 0-.155 0-.01.083-.092.092-.128.019-.055-.018-.11.065-.156-.11-.1.018-.21.028-.256.009-.064 0-.174.027-.257.019-.064.13-.082.13-.082 0-.01.027-.082.027-.082l-.064-.092.027-.11c.01-.01.13.028.028-.11.028-.027.065-.128.11-.137h.065s.028-.046.083-.028c.028-.027-.083-.137-.092-.173-.01-.019.019-.065-.028-.092.065-.055.047-.137.065-.192.018-.055.13-.138.13-.156.009-.037 0-.201 0-.201h.064c-.019-.074.083-.193.092-.238 0-.037-.01-.092 0-.129.01-.018.065-.045.065-.064.027-.1.018-.238.064-.375.028-.1 0-.192.028-.311 0 0 .065-.073.065-.092v-.091s.092-.074.092-.101h-.01Z" fill="#fff"/><path d="M55.508 37.447a.495.495 0 0 0-.037-.183.305.305 0 0 0 .028-.137.507.507 0 0 0 .083-.174.88.88 0 0 0 .027-.21v-.523l.019-.128c0-.073.01-.155.01-.238l.027-.192a.925.925 0 0 0-.028-.403V35.021a.46.46 0 0 0-.055-.302.376.376 0 0 0 .027-.147v-.696h-.027c.018-.155-.019-.32-.046-.448 0-.027-.01-.055-.019-.082.019-.174.01-.43 0-.522a.17.17 0 0 0-.018-.073.55.55 0 0 0-.037-.22v-.174l-.093-.385a.779.779 0 0 0 0-.293l-.009-.265-.092-.092a.682.682 0 0 0-.037-.22.741.741 0 0 0-.101-.53.621.621 0 0 0-.037-.357.584.584 0 0 0-.083-.284.926.926 0 0 0-.046-.302l.036-.037-.193-.75h-.047s-.027-.101-.064-.156a.586.586 0 0 0 0-.284.508.508 0 0 0-.083-.174.69.69 0 0 0-.056-.238l.019-.037-.046-.183a.55.55 0 0 0-.111-.22v-.055a1.346 1.346 0 0 0-.037-.201l-.037-.183a.631.631 0 0 0-.092-.21.44.44 0 0 0-.065-.166.444.444 0 0 0-.083-.2v-.147a.384.384 0 0 0-.11-.23.61.61 0 0 0-.111-.182c-.019-.083-.037-.174-.083-.266v-.018a.62.62 0 0 0-.102-.284c0-.018 0-.037-.009-.055h-.01l-.073-.22c-.018-.11-.083-.201-.221-.393-.056-.202-.102-.376-.24-.595 0-.019-.019-.037-.037-.064 0-.037 0-.074-.019-.12h-.009l-.019-.082-.276-.53-.074-.138-.028-.257-.221-.137-.102-.174c-.027-.064-.064-.119-.092-.165v-.045c.01-.12.028-.34-.092-.531a.543.543 0 0 0-.13-.293c-.018-.046-.046-.083-.064-.12v-.082c0-.174-.083-.284-.194-.393 0-.165-.065-.32-.138-.476l-.047-.175c-.036-.11-.092-.192-.175-.238.019-.11.019-.22.019-.33 0-.054 0-.118.009-.219v-.146a.48.48 0 0 0 0-.257.59.59 0 0 0 .037-.393v-.248c.027-.1.037-.192.027-.265a.878.878 0 0 0 .019-.348.9.9 0 0 0 .064-.485v-.156l-.036-.027v-.064a.388.388 0 0 0 .11-.21c.019-.065.019-.129.019-.184a.513.513 0 0 0 .027-.165l.194-.274-.074-.156s.01-.046.019-.073l.064-.156a.744.744 0 0 0 0-.32.401.401 0 0 0 .102-.23c.055-.1.064-.219.055-.338l.185-.22-.055-.1.046-.238c.027-.092.037-.184.055-.275 0-.037 0-.082.037-.156l.074-.192v-.027l.046-.147c.018-.064.037-.192.055-.33 0-.064.01-.137.028-.201.01-.037.028-.091.046-.156l.083-.054v-.33c0-.018.019-.046.019-.073a.462.462 0 0 0 .009-.193.508.508 0 0 0 .037-.11l.055-.036v-.21c0-.056 0-.129-.01-.202a.55.55 0 0 0 .047-.22v-.046a.604.604 0 0 0 .018-.384c0-.01 0-.028-.009-.037l-.064-.174a.53.53 0 0 0 .074-.522l.018-.054a.535.535 0 0 0-.028-.422.554.554 0 0 0 0-.274l-.018-.257-.019-.018c-.009-.073-.037-.128-.055-.174a.51.51 0 0 0-.11-.394l.064-.357-.028-.054a.716.716 0 0 0-.101-.367v-.091l-.028-.192-.092-.101s-.056-.064-.083-.092v-.064l-.037-.018a.512.512 0 0 0 0-.311l-.019-.147-.101-.073c-.046-.1-.111-.183-.185-.284l-.138-.238h-.028s-.018-.037-.018-.046a.258.258 0 0 0-.037-.11l-.037-.348h-.212a.756.756 0 0 0-.277-.338l-.074-.074a.681.681 0 0 0-.212-.265l-.176-.174a.563.563 0 0 0-.24-.128.578.578 0 0 0-.212-.156l-.304-.128-.388-.339a.51.51 0 0 0-.212-.064l-.323-.274-.083.064c-.046-.037-.093-.055-.13-.074a.621.621 0 0 0-.396-.201h-.12a.748.748 0 0 0-.185-.165l-.064-.064-.148-.027a1.707 1.707 0 0 0-.24-.019.528.528 0 0 0-.258-.11c-.065-.009-.13 0-.176 0h-.037c-.074 0-.147 0-.212.019a.592.592 0 0 0-.48-.21c-.028 0-.055 0-.083.008-.018-.009-.037-.027-.064-.036l-.268-.092-.074.037a.495.495 0 0 0-.175.036l-.37-.036c-.082-.01-.156 0-.184 0-.083 0-.166 0-.25.018l-.47-.027c-.055 0-.11 0-.184.018h-.028c-.092 0-.166.018-.24.037l-.35.128a.581.581 0 0 0-.277.036h-.01l-.35.037v.073c-.083 0-.157.028-.25.055l-.156.073H42.635a.566.566 0 0 0-.185.083c-.046 0-.101 0-.157.009a.612.612 0 0 0-.332.21.627.627 0 0 0-.388.129l-.203.073a.584.584 0 0 0-.184.183h-.11L41 4.36a.428.428 0 0 0-.074-.128c-.046-.174-.221-.348-.36-.467a.582.582 0 0 0-.267-.375 2.452 2.452 0 0 0-.083-.156.735.735 0 0 0-.212-.183.524.524 0 0 0-.102-.1l-.055-.092a.617.617 0 0 0-.332-.256l-.268-.193c-.074-.046-.13-.082-.23-.119l-.084-.082c-.138-.192-.387-.293-.544-.339l-.157-.165h-.148a.47.47 0 0 0-.166-.082c-.074-.018-.13-.018-.194-.018l-.037-.183-.48-.028-.212-.082a.586.586 0 0 0-.332 0c-.028-.01-.055-.028-.083-.037-.11-.046-.314-.128-.526-.119l-.24-.037-.148.019s-.037-.028-.064-.037l-.056-.073h-.48c-.092-.01-.166 0-.23 0h-.166l-.065.055s-.046-.019-.074-.028l-.138-.045-.083.027h-.028a.57.57 0 0 0-.35.11l-.111-.018a1.133 1.133 0 0 0-.25 0l-.1-.092-.278.229c-.064 0-.157 0-.267.018h-.047l-.24-.064-.129.174s-.037 0-.055.018a.766.766 0 0 0-.25.092.533.533 0 0 0-.23.055l-.148-.064-.156.22a.621.621 0 0 0-.157.073.492.492 0 0 0-.176.082l-.332.183v.019l-.221.11-.065.09c0 .001-.037.047-.074.102-.203.027-.526.22-.563.44a.673.673 0 0 0-.304.283l-.065.037a.535.535 0 0 0-.184.119l-.019.018s-.064.082-.083.128a.559.559 0 0 0-.147.147.487.487 0 0 0-.259.265.533.533 0 0 0-.166.22.812.812 0 0 0-.24.229l-.25.247-.073.137a.485.485 0 0 0-.24.247.567.567 0 0 0-.083.11.512.512 0 0 0-.24.339c-.092.082-.157.192-.221.302l-.24.028-.019.411v.055a.577.577 0 0 0-.24.257l-.046.128v.027s-.009.055-.018.074a.683.683 0 0 0-.093.183.593.593 0 0 0-.23.366v.046l-.194.055-.018.348c-.056.1-.13.247-.139.384a.491.491 0 0 0-.175.275l-.037.165c-.055.073-.194.256-.139.457v.046a.915.915 0 0 0-.083.21.5.5 0 0 0-.147.184l-.083.055v.366l-.028.082c-.018.055-.055.21-.102.293-.092.156-.129.348-.175.614 0 .045-.01.091-.018.128l-.093.119V11.208l-.074.193a.416.416 0 0 0 0 .238c-.018.055-.018.11-.018.165a.538.538 0 0 0-.092.283v.019a.498.498 0 0 0 0 .366c-.12.174-.166.348-.13.476 0 .055 0 .128.056.22-.083.11-.194.283-.138.53-.01.046-.028.12-.019.211l-.092.165c-.028.091-.037.174-.028.256l-.018.257c0 .055 0 .1.037.201a.686.686 0 0 0-.065.366v.046c-.037.082-.046.229-.028.375a.613.613 0 0 0-.027.165l-.139-.137-.12-.028h-.027a.679.679 0 0 0-.167-.128l-.092-.046a1.126 1.126 0 0 0-.24-.128l-.083-.027a.989.989 0 0 0-.249-.22l-.046-.1h-.305c-.138-.138-.267-.193-.378-.202a.764.764 0 0 0-.24-.092.528.528 0 0 0-.341-.128h-.046s-.047-.018-.074-.018l-.656-.357-.037.027-.203-.155-.175.073a.54.54 0 0 0-.258-.156h-.083a.609.609 0 0 0-.48-.1.746.746 0 0 0-.323-.193l-.314-.036v.018h-.028a1.514 1.514 0 0 0-.101-.027l-.185-.101c-.101-.028-.203-.037-.286-.046h-.064c-.083-.055-.185-.128-.268-.128-.037 0-.064-.01-.092-.01a.578.578 0 0 0-.323-.1.717.717 0 0 0-.166-.046l-.49-.055a.512.512 0 0 0-.313-.064l-.24-.055a.649.649 0 0 0-.332.028h-.185a.712.712 0 0 0-.35-.046.676.676 0 0 0-.277-.01h-.074a.513.513 0 0 0-.314-.017l-.074.027-.166-.11-.11.073h-.056l-.35.037-.038-.037-.276.037c-.093 0-.277-.01-.453.092l-.073-.055h-.111a.669.669 0 0 0-.332.027l-.36.037-.102.027-.369.037v.055h-.046a.374.374 0 0 0-.185.073c-.12 0-.23 0-.313.018-.056 0-.12.019-.13.01l-.12-.019a.565.565 0 0 0-.258.064c-.037 0-.11 0-.175.018l-.222.11h-.046l-.11-.055-.231.184s-.037.036-.056.045c-.027 0-.055 0-.083.01-.092.009-.166.054-.23.091a.66.66 0 0 0-.296.156.645.645 0 0 0-.452.165h-.028a.603.603 0 0 0-.24.155c-.046.028-.092.055-.129.082-.166.055-.286.202-.36.32a.653.653 0 0 0-.498.248c-.028 0-.046.01-.055.018-.166.046-.305.184-.397.312a.518.518 0 0 0-.314.265.413.413 0 0 0-.203.275c-.074.037-.11.064-.11.073a.564.564 0 0 0-.25.293l-.092.064v.055c-.203.156-.36.394-.388.476-.009.028-.064.11-.092.156l-.065.082c-.12.137-.212.238-.203.339 0 .027 0 .055-.009.073a1.247 1.247 0 0 0-.249.247s-.203.34-.25.568a.903.903 0 0 0-.082.137c-.037.101-.056.202-.065.284 0 .046-.009.092-.037.147-.037.091-.092.21-.11.338v.074l-.028.366.055.091v.028a.993.993 0 0 0-.092.155l-.055.422v.119l-.13.128.13.256c-.028.165 0 .311.027.44-.018.091-.046.22-.018.366 0 .082 0 .174.055.284v.082l.037.494v.055s.01 0 .01.01c.009.073.036.137.082.2v.367l.065.046s0 .082.018.119l.019.082a.555.555 0 0 0-.203.275.687.687 0 0 0-.259.229l-.304.284a.443.443 0 0 0-.13.183l-.165.119.027.1c-.212.138-.332.248-.396.449-.01.046-.01.092-.01.137a1.02 1.02 0 0 0-.092.147.697.697 0 0 0-.314.375v.073c-.147.156-.23.266-.267.44v.073l-.13.201v.321l-.027.027a.84.84 0 0 0-.157.193l-.037.11a.336.336 0 0 0 0 .137.483.483 0 0 0-.055.247l-.047.156a1.234 1.234 0 0 0-.027.265v.064l-.056.138a.465.465 0 0 0 0 .274.628.628 0 0 0-.027.302l-.019.092a1.132 1.132 0 0 0 0 .531c0 .027.019.064.028.1l-.065.092v.12a.92.92 0 0 0 .019.274.787.787 0 0 0 .027.503.378.378 0 0 0-.018.202l.018.265c0 .055 0 .11.019.156l.046.137c0 .064.01.147.028.257l.184.595.083.256c-.092.1-.175.21-.24.302a.76.76 0 0 0-.36.421c-.046.055-.092.11-.138.174a.767.767 0 0 0-.138.33.76.76 0 0 0-.24.348v.027a.646.646 0 0 0-.166.284c0 .027-.01.046-.01.073l-.129.183v.321l-.074.073-.073.183c-.019.082-.01.156-.019.156-.046.082-.092.155-.11.238a.667.667 0 0 0 0 .302.542.542 0 0 0-.038.33v.183l-.101.1v.669l-.018.11a.456.456 0 0 0-.019.11l.046.53a.646.646 0 0 0-.027.357.43.43 0 0 0 .064.174c0 .101 0 .183.037.257v.146c0 .064-.018.174.018.302l.019.12-.019.164.148.083c0 .055.01.1.028.137v.018l.267.559s0 .009.01.018l.157.339v.045s-.037.055-.047.074c-.101.119-.193.22-.212.357a.554.554 0 0 0-.148.256v.028a.499.499 0 0 0-.12.155.671.671 0 0 0-.24.412.557.557 0 0 0-.147.247v.046a.53.53 0 0 0-.065.385v.018l-.129.156v.073a.57.57 0 0 0-.055.375l-.028.092c-.01.055-.018.119-.018.229l-.074.174a.534.534 0 0 0 .018.338l-.055.458c-.01.12.018.22.046.275-.055.22-.01.457.019.55l.018.127.018.019c0 .082.019.183.065.283l.018.284a.49.49 0 0 0 .167.376c0 .036 0 .073.018.11l-.018.32.092.119.028.421.092.018a.462.462 0 0 0 .101.165c.019.156.093.293.166.421l.047.128a.58.58 0 0 0 .12.22l.341.495c.046.082.11.146.212.2a.792.792 0 0 0 .13.12l.082.11.453.348.129.302.24.064c.046.009.138.036.138.055l.092.155c.047.055.093.101.148.147l.028.247h.277l.064.366.259-.082v.146l.443.028a.43.43 0 0 0 .212.11l.184.091s.01 0 .019.01v.054l.295.11c.065.028.13.037.185.037.009.009.027.027.046.036l.074.147h.129l.47.146h.167c.027.019.046.037.073.055l.204.11c.064.019.129.028.184.028 0 0 .019 0 .028.009.027.018.064.027.101.046a.784.784 0 0 0 .314.164c.055.01.11.01.221.01a.46.46 0 0 0 .185.073l.037.046h.351c.064.045.12.073.175.091l.203.073a.686.686 0 0 0 .277.01l.157.128.203-.037c.064.01.138.018.221.018l.157.055a.958.958 0 0 0 .332.019l.102.036.037.055h.23c.084 0 .157 0 .222-.027.138.046.323.082.498.055.13.045.277.036.397 0h.25a.44.44 0 0 0 .22-.055l.204.137.157-.091.23.036.157-.146s.083-.01.13-.01c.1 0 .22-.009.36-.045h.018s.092 0 .147-.019a.535.535 0 0 0 .13-.045.51.51 0 0 0 .221-.064h.139s.018.018.036.027l.046.256h.268l.11.037s.047.018.075.018a.55.55 0 0 0 .157.174l.203.1a.505.505 0 0 0 .286.22l.166.019s.083.027.129.037c.037.064.065.137.083.155a.724.724 0 0 0 .157.183l.064.12h.277l.157.09a.577.577 0 0 0 .222.157c.11.11.249.146.36.173l.092.11.11.037.02.165h.313s.01 0 .018.009v.21h.48s.055.046.083.074l.083.11h.176s.064.009.083.018a.683.683 0 0 0 .341.192l.065.064.867.403a.917.917 0 0 0 .148.046c.018.018.046.037.074.055v.027l.258.074.452.146s.065.064.11.092a.52.52 0 0 0 .186.073l.101.11h.175l.176.027h.027l.111.183h.185s.092.046.138.064a.739.739 0 0 0 .23.046l.14.037a.563.563 0 0 0 .248.146h.203c.065.037.139.064.148.073.102.037.194.055.277.074.037 0 .064 0 .046-.01.166.193.341.257.48.23l.184.082c.093.018.176.018.167.018.009 0 .027.01.037.018l.064.101h.314l.341.11h.056l.147.046a.94.94 0 0 0 .268.036h.037l.12.138.23-.055c.084.027.213.082.407.064.129.064.258.1.378.091a.956.956 0 0 0 .258.028l.111.1h.139c.082.01.166 0 .249-.018.009 0 .027.01.037.019l.064.1h.378l.065.138.268-.037.046.092.397-.129c.101.028.193.037.286.046l.184.12.12-.037a.622.622 0 0 0 .296.018c.018 0 .027.009.046.018l.332.028s.037 0 .083-.01a.586.586 0 0 0 .314.019c.175.036.332.018.461 0l.065.018a.687.687 0 0 0 .424-.018h.148l.387.027.084-.055s.083 0 .12.01c.036.009.073 0 .12.009.156.027.313.018.442 0 .065 0 .157-.01.185 0 .175.027.397 0 .581-.037l.148.147.304-.156c.305.027.61.009.933-.046.12 0 .221-.027.295-.073h.018c.185.036.462.009.637-.037l.065-.027c.138.009.24-.01.378-.046h.175c.13 0 .259 0 .277-.018a.455.455 0 0 0 .23-.064c.112 0 .287 0 .435-.11.037 0 .073-.019.12-.028a.604.604 0 0 0 .286.037l.267-.019.12-.082a1.48 1.48 0 0 0 .305-.091c.064.009.175.027.36-.028.018 0 .064-.009.101-.009.074 0 .157-.018.23-.028h.195l.027-.054a.348.348 0 0 0 .139-.083h.009s.055 0 .083-.009l.12-.018a.813.813 0 0 0 .378-.165c.047 0 .084 0 .111-.01l.12-.027c.12-.027.25-.055.406-.146l.028-.019.129.028.092-.046.388.018v-.183a.497.497 0 0 0 .184-.091c.13 0 .286-.046.37-.092h.027l.074-.018a.508.508 0 0 0 .277-.156.539.539 0 0 0 .295-.082c.028 0 .056 0 .093-.01l.258-.1a.569.569 0 0 0 .25-.119c.017 0 .036 0 .054-.018l.13-.019.037-.045a.55.55 0 0 0 .221-.147.83.83 0 0 0 .25-.11c.018 0 .027-.018.045-.027h.083l.056-.01a.498.498 0 0 0 .23-.118h.037l.166-.055.047-.055a.51.51 0 0 0 .24-.147.367.367 0 0 0 .147-.073l.176-.064a.61.61 0 0 0 .23-.229c.01 0 .028-.018.037-.027h.019l.258-.019.065-.1a.483.483 0 0 0 .184-.202h.222l.037-.064.24-.046v-.146a.868.868 0 0 0 .166-.11h.313v-.128l.231-.284a.468.468 0 0 0 .286-.165.572.572 0 0 0 .24-.192.566.566 0 0 0 .258-.238c.268-.1.388-.183.453-.33.055-.045.12-.091.184-.155l.166-.101s.074-.064.102-.1h.23l.028-.129.277-.357.046-.073a.62.62 0 0 0 .194-.183.637.637 0 0 0 .194-.192.51.51 0 0 0 .221-.22l.074-.064a.86.86 0 0 0 .157-.165l.388-.458c.129-.082.23-.201.295-.284a.572.572 0 0 0 .083-.11l.295-.357.037-.054c.056-.092.12-.174.185-.266l.027-.037a.56.56 0 0 0 .213-.238l.193-.036v-.302s.037-.046.056-.064c.074-.083.129-.156.166-.202a.552.552 0 0 0 .175-.293v-.046a.57.57 0 0 0 .185-.201l.138-.1.056-.211s0-.037.009-.055a.7.7 0 0 0 .212-.348.963.963 0 0 0 .139-.183l.073-.064.13-.037.073-.32s.047-.065.065-.11l.166-.138v-.146s.018-.027.018-.046c.019-.046.047-.091.065-.137l.092-.1.065-.175s.01-.055.018-.073l.084-.018v-.302l.267-.44.055-.082v-.055c.084-.074.157-.147.176-.23l.147-.338.148-.348s.056-.091.074-.146v-.028s.037-.036.046-.055l.13-.027v-.321l.073-.173s.01-.065.019-.101a.615.615 0 0 0 .073-.22.626.626 0 0 0 .13-.339l.073-.164a.503.503 0 0 0 .01-.202.44.44 0 0 0 .11-.192c.028-.082.028-.156.028-.22a.551.551 0 0 0 .102-.192l.156-.348v-.128c0-.055.019-.12.019-.183a.634.634 0 0 0 .092-.156l.019-.137a.92.92 0 0 0 .101-.385.976.976 0 0 0 .11-.448.52.52 0 0 0 .084-.257l.018-.073a.552.552 0 0 0-.046-.366c.01-.073.01-.165.01-.238l.092-.202c.037-.11.027-.21.027-.302.019-.064.019-.119.019-.165a.93.93 0 0 0 .083-.412l.102-.1-.102-.23v-.09l-.12.1Zm-.794-1.703h-.073l-.084.348a.492.492 0 0 0 .139.495v.073a.442.442 0 0 0-.102.238l-.092.045-.018.129-.01.119a.58.58 0 0 0 .12.412l-.037.375a.497.497 0 0 0-.055.311V38.344l-.065.037-.064.265v.284s.01.019.018.028l-.184.155.138.339.028.055-.11.128.064.257s-.01.064-.065.137l-.221.311.11.11s0 .018-.009.027c-.175.174-.175.394-.157.54l-.064.083v.082a.487.487 0 0 0-.093.266l-.101.137v.174a.45.45 0 0 0-.166.257.457.457 0 0 0-.019.11l-.064.21s-.028.119-.019.21a.445.445 0 0 0-.092.312l-.018.137a.33.33 0 0 0-.065.156c-.018.027-.037.045-.055.073l-.102.201v.037l-.286.348-.083.558c-.074.074-.148.147-.175.266 0 .036-.019.064-.019.1l-.064.083v.018a.748.748 0 0 0-.231.348v.046a.512.512 0 0 0-.12.403v.046c-.074.082-.139.174-.148.274a.557.557 0 0 0-.046.11.445.445 0 0 0-.092.12l-.157.136a.436.436 0 0 0-.148.358l-.194.192-.046.146s-.018.055-.018.073c-.13.101-.194.22-.222.312l-.101.055-.046.192a.735.735 0 0 0-.259.339c0 .036-.009.064-.018.1-.019.019-.028.037-.037.055l-.092.11c-.046.055-.093.11-.13.147l-.34.11v.33L49.97 49c-.046.073-.101.146-.157.229a.363.363 0 0 0-.092.073h-.11l-.112.302a.591.591 0 0 1-.083.137l-.009.01-.138.036a.5.5 0 0 0-.36.366h-.268v.422c-.037.036-.083.073-.12.119a.501.501 0 0 0-.341.338c-.028.028-.037.046-.037.055a.467.467 0 0 0-.23.165l-.287.055v.082h-.065l-.046.23a.548.548 0 0 0-.129.118h-.507l.101.357a.662.662 0 0 0-.184.174c-.037.019-.083.028-.13.046l-.092.018-.138.138-.388.128v.201s-.074 0-.11.01c-.157.027-.259.128-.388.265h-.36v.302l-.452.055v.11l-.434.366a.49.49 0 0 0-.139.073.503.503 0 0 0-.313.257c-.019 0-.028.009-.046.018l-.037.018a.525.525 0 0 0-.425.21l-.083.047s-.037 0-.055.009l-.166.11h-.019c-.11.018-.203.064-.35.146-.037 0-.093 0-.148.018l-.342.211a.497.497 0 0 0-.313.165c-.046.018-.083.036-.111.046-.037 0-.102 0-.175.018l-.13.046a.545.545 0 0 0-.258.027h-.138l-.157.183-.065.028-.055-.037-.259.073-.064.019-.35.036v.12l-.416.155c-.056.018-.11.055-.166.082a.616.616 0 0 1-.212.074h-.12c-.12.018-.213.027-.305.054l-.11-.11-.213.23a.558.558 0 0 0-.388.137h-.11l-.028.045c-.074 0-.148.019-.24.037-.055 0-.138-.018-.212 0-.11 0-.203.046-.305.083a.54.54 0 0 0-.35.073.518.518 0 0 0-.194-.037l-.203.037s-.083.027-.056.027l-.6.046v.064a.422.422 0 0 0-.129.064c-.129 0-.286 0-.36.01-.11 0-.193.027-.24.036a.555.555 0 0 0-.47.082h-.055l-.093-.064-.793.046v.12a2.394 2.394 0 0 1-.628 0l-.147-.02-.037.02-.037-.028-.434.018-.046.064c-.065.01-.092.027-.139.018a1.377 1.377 0 0 0-.433 0c-.074 0-.157.01-.194 0-.074-.018-.148-.018-.23-.027h-.075l-.249-.12-.157.11-.341-.155-.212.1s-.065.037-.093.056c-.083 0-.166 0-.24.018-.157.037-.184.046-.276.018-.019 0-.037 0-.065-.009l-.563-.055a.516.516 0 0 0-.323-.027l-.074-.074-.203.065a1.136 1.136 0 0 0-.24-.028l-.194-.156-.175.055-.563-.1a.433.433 0 0 0-.194.045h-.046a2.547 2.547 0 0 1-.24-.091l-.258-.11-.083.073s-.056-.018-.092-.018c-.046 0-.083-.01-.13-.01l-.424-.072a.666.666 0 0 0-.397-.055.755.755 0 0 0-.304-.064 1.121 1.121 0 0 0-.305-.055l-.046-.055h-.083l-.618-.22-.157.037h-.046a.572.572 0 0 0-.231-.083h-.019a.601.601 0 0 0-.378-.137h-.018a.86.86 0 0 0-.434-.165c-.037 0-.065-.009-.148-.046a.56.56 0 0 0-.166-.073v-.183h-.434l.046-.146h-.332l-.544-.147c-.055-.01-.11-.018-.166-.027h-.028c-.028-.028-.064-.055-.102-.083l-.322-.238-.407-.1s-.082-.046-.129-.065c-.046-.018-.092-.018-.138-.018a.748.748 0 0 0-.25-.1l-.156-.065s-.074-.045-.11-.064c-.075-.137-.232-.265-.545-.275a.529.529 0 0 0-.305-.146.594.594 0 0 0-.24-.146l.019-.147-.351-.119s-.148-.046-.268-.018c-.009 0-.027-.019-.046-.019l.083-.247-.563-.064h-.11a.497.497 0 0 0-.185-.091l-.11-.065-.398-.32-.027-.027-.23-.138-.12.037-.065-.339-.416-.027c-.046-.019-.101-.028-.157-.046a.539.539 0 0 0-.258-.21v-.083l-.148-.137a.399.399 0 0 0-.249-.12l.046-.054-.923-.504-.11.156s-.092.018-.148.036h-.018s-.065.01-.093.019c-.018 0-.037 0-.055.009l-.12-.12-.286.193c-.13 0-.23.018-.332.092-.13 0-.305.018-.48.1h-.065c-.147-.054-.323-.091-.498-.054a.174.174 0 0 0-.074.018h-.148c-.092-.018-.175 0-.24.009a.538.538 0 0 0-.378.046c-.037-.01-.083-.028-.11-.037l-.231-.165-.157.12a.502.502 0 0 0-.415-.046H9.92a.62.62 0 0 0-.49-.083c-.046 0-.092-.018-.156-.018a1.141 1.141 0 0 0-.36-.064s-.019-.01-.028-.019a.448.448 0 0 0-.295-.238.599.599 0 0 0-.342 0l-.193-.064a.603.603 0 0 0-.36 0h-.01c-.055-.036-.12-.091-.221-.119l-.221-.183v-.064H6.93a.496.496 0 0 0-.185-.064h-.074a.374.374 0 0 0-.092-.082l-.23-.147-.111.037s-.074-.064-.102-.092v-.165l-.48.028c-.027-.018-.064-.037-.11-.064l-.314-.247a.486.486 0 0 0-.194-.055c-.037-.019-.065-.037-.101-.055l-.074-.046-.093-.311h-.323c-.046-.055-.101-.083-.156-.11a.834.834 0 0 0-.074-.12.892.892 0 0 0-.416-.283c0-.01-.009-.027-.018-.037 0 0-.157-.274-.388-.384l-.037-.201-.415-.175s-.055-.045-.074-.064a2.378 2.378 0 0 0-.11-.192c-.019-.037-.046-.064-.074-.091l-.019-.129-.193-.174s-.019-.054-.037-.082L2.4 47.28l.037-.046-.074-.256-.046-.11.277-.403-.508-.11.157-.311-.203-.12s-.01-.082-.028-.127a.62.62 0 0 0-.129-.211v-.064l-.046-.687h-.074l-.028-.073v-.238c.01-.055 0-.11 0-.156a.527.527 0 0 0 .065-.256l-.019-.604a.933.933 0 0 0-.009-.23.547.547 0 0 0 .083-.384l.056-.073v-.018a.49.49 0 0 0 .092-.183l.268-.23-.176-.219a.502.502 0 0 0 .194-.348l.194-.137a.484.484 0 0 0 .138-.366.497.497 0 0 0 .148-.275l.35-.183v-.32a.685.685 0 0 0 0-.275c-.018-.083-.055-.147-.092-.22a.48.48 0 0 0-.129-.32.632.632 0 0 0-.046-.12l.083-.09-.138-.266a.538.538 0 0 0-.24-.238.657.657 0 0 0-.12-.34c0-.027-.019-.063-.028-.1v-.018c0-.046 0-.092-.018-.128 0-.055.018-.147-.01-.275v-.037c0-.073 0-.164-.046-.265l.102-.1v-.697h-.093a.773.773 0 0 0-.027-.412l-.019-.064s.056-.1.074-.174a.643.643 0 0 0 .148-.457l-.056-.23a.395.395 0 0 0-.037-.228.97.97 0 0 0 .13-.284v-.064s.064-.073.083-.12l.424-.255-.249-.248s.037-.082.046-.119l.019-.155.129-.183v-.037c.074-.073.166-.156.212-.32l.019-.12s.046-.063.073-.082c.056-.055.111-.128.166-.22l.296-.045v-.293s.037-.046.055-.073h.166l.148-.138.11-.165a.557.557 0 0 0-.073-.53l-.028-.101.01-.046-.028-.128a.477.477 0 0 0-.056-.147l.037-.036-.138-.32c-.028-.065-.065-.11-.102-.157l-.046-.045a.582.582 0 0 0-.055-.412v-.156l.064-.146-.046-.174-.083-.138.203-.31-.129-.13v-.118a.425.425 0 0 0 .028-.156l-.083-.311s0-.073.018-.156a5.2 5.2 0 0 0 .028-.155v-.046c.074-.092.138-.238.074-.467 0 0 .018-.073.018-.091.01-.065.018-.147.018-.239a.522.522 0 0 0 .102-.412l.028-.11v-.063c.092-.101.157-.174.212-.257l.11-.256v-.238s.02-.055.028-.083a.312.312 0 0 0 .01-.155c.018-.018.036-.046.055-.064.083-.101.157-.183.185-.312a.669.669 0 0 0 .267-.348.836.836 0 0 0 .148-.302v-.027c.027-.018.064-.037.083-.055l.397-.531.018-.018a.423.423 0 0 0 .13-.064l.156-.101.028-.12.092-.017.259-.312.23.046.139-.394a.5.5 0 0 0-.01-.366.422.422 0 0 0-.036-.192c0-.018 0-.027-.01-.046l-.138-.494c0-.083-.028-.183-.037-.22l-.019-.064.037-.778.047-.055-.185-.147a.498.498 0 0 0-.01-.283c-.018-.064-.027-.092-.036-.083l.12-.201-.037-.257-.055-.137.11-.156-.064-.1a.946.946 0 0 0 .055-.202l.074-.1v-.312l-.065-.11v-.119l.056-.128c.064-.137.073-.265.083-.375a.495.495 0 0 0 .166-.293l.064-.22s.047-.082.065-.091c.12-.092.295-.23.341-.44v-.1s.074-.083.139-.165c.064-.092.138-.21.184-.32l.037-.037c.185-.037.397-.183.406-.422 0-.018.01-.027.019-.045a.949.949 0 0 0 .267-.275.525.525 0 0 0 .231-.174h.028l.286-.302v-.037c.166-.055.277-.11.332-.174v-.018h.046l.6-.11v-.238l.175-.165h.028l.185-.064a.53.53 0 0 0 .212-.155h.046c.13-.019.222-.092.332-.174h.046l.065.036.23-.054a.47.47 0 0 0 .296-.22.944.944 0 0 0 .323-.147l.212-.055c.148.019.268 0 .37-.018a.379.379 0 0 0 .092-.018c.11.036.276.055.47-.055l.111.055h.11a.499.499 0 0 0 .351-.156l.25.11.12-.137h.055l.157.018c.203.055.35 0 .443-.055l.074.073h.378l.037-.027.175.036.111-.119h.046a.58.58 0 0 0 .49-.018l.045.018.093-.027.11.018h.028c.065.01.13.018.203 0l.194.22.286-.156c.074 0 .138-.009.194-.027a.505.505 0 0 0 .157.064l.295.082.018-.018.148.11.332-.092.065.028h.018l.25.247.138-.128h.037s.092.018.129.018l.11.055c.13.046.26.055.36.064a.586.586 0 0 0 .444.156l.184.064.055-.018s.028 0 .047.009l.055.055.092.082.12.018.046.055.213.019c.064 0 .129 0 .184-.019.019.01.046.019.074.028.185.22.424.238.572.21l.083.092.203.046s.065.009.092.009c.019.027.047.055.065.073a.64.64 0 0 0 .47.156l.14.027c.055.037.147.082.22.073.056.055.13.11.231.138a.54.54 0 0 0 .305.265.611.611 0 0 0 .314.018c.11.12.221.184.396.22l.499.366c.101.11.24.184.378.202.019.009.028.018.046.027.01 0 .028.019.037.028l.12.201.268.193.452-.11.092-.101c.13-.137.139-.275.13-.476a.627.627 0 0 0 .036-.229l.065-.11-.092-.265.166-.147-.157-.256c.055-.11.064-.22.055-.32a.47.47 0 0 0 .065-.394l-.028-.156c0-.073 0-.137-.018-.192a.554.554 0 0 0 .129-.522c.01-.046.028-.12.018-.22a.756.756 0 0 0 .148-.311v-.037l.018-.448.111-.129v-.512l.102-.073v-.54a.472.472 0 0 0 .083-.376v-.119c.018-.064.037-.146.046-.22.018-.091.037-.256.046-.284.074-.128.13-.265.166-.393l.12-.1v-.221l.185-.018v-.293l.073-.091-.046-.193c.056-.1.12-.247.102-.43l.018-.037a.736.736 0 0 0 .074-.228l.203-.174.037-.101a.468.468 0 0 0 0-.302h.019v-.019l.442-.091-.147-.339.083-.128v-.037l.028-.027.406-.339-.13-.119.13-.128c.129-.128.138-.266.138-.421l.028-.083c.055-.073.092-.155.129-.228h.01c.091-.055.147-.12.128-.12l.582-.384-.222-.146.028-.046a.6.6 0 0 0 .323-.357v-.028a.558.558 0 0 0 .175-.183l.351-.036v-.34s.028-.018.037-.036l.544-.522s.083-.073.12-.128l.296-.036.037.082.046-.082h.304l-.101-.32.101-.175c.083-.046.139-.091.277-.284.074 0 .166 0 .258-.045l.397-.074v-.064l.028.019.221-.312s.047-.018.065-.036c.083-.01.148-.046.23-.092.01 0 .02-.009.038-.018l.12.036.304-.1.056-.074s.073-.018.101-.027c.074 0 .184 0 .323-.037.055 0 .12 0 .184-.018l.111-.018c.046.009.102.018.148 0a.4.4 0 0 0 .157-.028.5.5 0 0 0 .194-.045l.221.31.397-.32h.083s.11 0 .175-.009l.12.092.102.192.434-.201.193.1.12-.073s.046.018.056.028l.572.247.064-.092s.093.037.148.046l.194.238-.037.073h.701l.074.092h.148l-.019.238.36.036.12.138H38.694c.037.073.139.22.342.284.018.009.046.018.064.027a.56.56 0 0 0 .166.165c.065.1.139.155.213.201.037.083.083.193.184.275v.11l.323.274h.019l.018.019c.01.073.037.128.074.174l-.028.192.194.11v.046a.702.702 0 0 0 .092.164v.44l.49-.028a.625.625 0 0 0 .535-.338.844.844 0 0 0 .12-.074l.526-.32.286-.073s.027-.01.037-.019l.147-.1s.028-.019.037-.037c.028 0 .065.01.102.01l.618-.248h.018c.019 0 .037-.01.056-.018l.517-.019.092-.091.046.036.415-.119.074-.11c.083 0 .185 0 .286-.036.056 0 .11.01.166 0l.13.046h.304l.065-.064h.046a.983.983 0 0 0 .221.018.527.527 0 0 0 .36.1h.019c.018 0 .037 0 .055-.008l.074-.037.11.119h.213l.018.156h.305l.138.11.286-.12s.028-.018.046-.018h.037l.102.037s.092.027.138.027l-.064.311h.821a.513.513 0 0 0 .074.055l-.056.312h.462l.23.082.037-.027.268.238h.01c.082.064.175.11.267.137l.184.037s.074.055.111.073c.083.11.194.165.295.192.028.028.065.064.111.082a.86.86 0 0 0 .074.046c.028.046.065.092.092.128l.333.531.11.11.046.165.102.064.028.055c.027.055.073.1.11.137.037.065.065.11.093.147l.11.522v.265l.074.028.037.21h.148l.046.11-.028.21a.92.92 0 0 0 .037.404c.01.073.037.128.065.183a.54.54 0 0 0 .083.375v.165l-.194.256.148.156.055.256s0 .046.01.064c-.185.202-.185.43-.14.623a.474.474 0 0 0 .084.155l-.019.211c-.055.091-.101.229-.055.394l.018.064-.036.137a.464.464 0 0 0-.019.22l-.083.604-.028.1c-.018.074-.027.184-.037.284v.046l-.092.083v.265a.838.838 0 0 0-.092.23 1.662 1.662 0 0 0-.037.21c0 .045-.01.091-.037.183v.036a.517.517 0 0 0-.13.33l-.128.183h-.047v.431l-.082.146v.403l-.24.137.138.265-.258.357.11.092s-.055.064-.074.1l-.064.138v.348l-.028.668-.11.092.129.33c0 .064-.037.292-.01.485a.575.575 0 0 0-.055.33l-.166.237.157.156v.192c0 .064 0 .12-.01.192-.046.293.093.495.167.623 0 .01.009.018.018.027l.019.083s.046.119.083.192c.009.028.027.055.037.092a.686.686 0 0 0 0 .274c.027.11.083.183.203.312a.56.56 0 0 0 .12.366l-.019.018.166.495c0 .247.083.402.203.558.046.091.074.137.074.11a.89.89 0 0 0 .203.348l.037.155s0 .019.01.028l.248.586h.084l.073.201.102.128c.092.147.12.248.166.449l.037.1s.037.065.083.129a.505.505 0 0 1 .055.073c0 .037 0 .073.01.12h.009l.046.173.018.018.222.559.027.247.111.11v.073c0 .165.083.275.175.366l.019.037c0 .11.028.256.166.384v.055s.028.083.028.138c.009.1.027.192.046.265h.018a.628.628 0 0 0-.037.23l.213.503.018.027v.201l.12.504-.037.082.102.12v.283l.064.074.047.22a.45.45 0 0 0 .101.21l.028.119v.073c0 .147-.01.256.018.348l-.055.046.129.33-.185.192.305.302s.01.064.028.1l-.13.193.166.228c0 .046.019.101.037.156l-.147.192.221.23c0 .063.019.118.046.173v.193c-.027.137 0 .265.028.393a.65.65 0 0 0 .037.147 1.545 1.545 0 0 0-.018.448.553.553 0 0 0 .009.33v.036a.495.495 0 0 0 .027.422v.091l-.24.266.277.22c0 .054 0 .118-.009.173l.01-.009Z" fill="#fff"/></g><defs><clipPath id="a"><path fill="#fff" transform="translate(.684 .707)" d="M0 0h55v57H0z"/></clipPath></defs></svg>